<svg xmlns="http://www.w3.org/2000/svg" width="287.517" height="294.011" viewBox="0 0 287.517 294.011">
    <path fill="#f2f2f2" d="M756.929 319.466h35.058v-23.211h-33.061l-25.76-43.2 21.654-39.9 37.167-.521v-26.565H755.5L739 165.9l-10.563-17.715 9.04-16.185h-29.246l-3.015 5.39h-42.1L659.9 132h-29.725l11.463 19.222-22.423 40.132-45.969.651-23.546-39.486L561.163 132h-29.246l-5.607 10.03h-21.84v23.211h23.087L552 206.235l-25.69 45.987h-21.84v23.211h23.087l31.305 52.5 75.444-1.067 31.33-56.073H703.8l26.691 44.629 1.147 1.985-21.369 39.363h-49.477v23.21h42.4l27.54 46.031 29.4-17.535-26.97-45.231zm-137.714-17.92l-45.969.651-23.546-39.486 22.423-40.132 45.969-.651 23.546 39.487zm91.063-54.969h-47.755l-23.186-38.885 26.312-47.1h17.572v.3H705.3l3.734 4.584 23.695 39.735z" opacity="0.6" transform="translate(-504.47 -132)"/>
</svg>
