<?xml version="1.0" encoding="utf-8"?>
<!-- Generator: Adobe Illustrator 24.2.1, SVG Export Plug-In . SVG Version: 6.00 Build 0)  -->
<svg version="1.1" xmlns="http://www.w3.org/2000/svg" xmlns:xlink="http://www.w3.org/1999/xlink" x="0px" y="0px"
	 viewBox="0 0 48 48" style="enable-background:new 0 0 48 48;" xml:space="preserve">
<style type="text/css">
	.st0{fill:#FAF9F6;}
	.st1{fill:#3A5F3E;}
	.st2{fill:#3A5F3E;stroke:#FFFFFF;stroke-width:8.5039;stroke-miterlimit:10;}
	.st3{fill:#261F1C;}
	.st4{fill:#FFFFFF;}
	.st5{fill:#C53B2D;}
	.st6{fill:none;stroke:#3A5F3E;stroke-width:2.8346;stroke-miterlimit:10;}
	.st7{fill:none;stroke:#FF0000;stroke-miterlimit:10;}
	.st8{fill:none;stroke:#FF0000;stroke-miterlimit:10;stroke-dasharray:11.9893,11.9893;}
	.st9{fill:none;stroke:#C53B2D;stroke-width:2.8346;stroke-miterlimit:10;}
	.st10{fill:none;stroke:#3A5F3E;stroke-width:3.4016;stroke-miterlimit:10;}
	.st11{fill:none;stroke:#FF0000;stroke-miterlimit:10;stroke-dasharray:11.6938,11.6938;}
	.st12{fill:none;stroke:#C53B2D;stroke-width:2.4341;stroke-miterlimit:10;}
	.st13{fill:none;stroke:#FFFFFF;stroke-width:5.684;stroke-miterlimit:10;}
	.st14{fill:none;stroke:#FFFFFF;stroke-width:4.3765;stroke-miterlimit:10;}
	.st15{fill:none;stroke:#C53B2D;stroke-width:2.1826;stroke-miterlimit:10;}
	.st16{fill:none;stroke:#261F1C;stroke-width:2.842;stroke-miterlimit:10;}
	.st17{fill:none;stroke:#261F1C;stroke-width:2.7435;stroke-miterlimit:10;}
	.st18{fill:none;stroke:#3A5F3E;stroke-width:9.0371;stroke-miterlimit:10;}
	.st19{fill:none;stroke:#3A5F3E;stroke-width:5.214;stroke-miterlimit:10;}
	.st20{fill:none;stroke:#261F1C;stroke-miterlimit:10;}
	.st21{fill:#979797;}
</style>
<g id="レイヤー_2">
</g>
<g id="レイヤー_1">
	<g>
		<path class="st1" d="M19.38,30.23H6.6L0.22,19.17L6.6,8.11h12.77l6.39,11.06L19.38,30.23z M9.65,24.96h6.69l3.34-5.79l-3.34-5.79
			H9.65L6.3,19.17L9.65,24.96z"/>
		<rect x="30.02" y="29.17" transform="matrix(0.5 -0.866 0.866 0.5 -10.1038 46.1167)" class="st1" width="9.73" height="5.27"/>
		<polygon class="st1" points="47.05,47.08 35.8,47.08 29.41,36.02 35.8,24.96 47.05,24.96 47.05,30.23 38.84,30.23 35.5,36.02 
			38.84,41.82 47.05,41.82 		"/>
		<rect x="15.42" y="3.89" transform="matrix(0.5001 -0.866 0.866 0.5001 4.492 20.8331)" class="st1" width="9.73" height="5.27"/>
		<polygon class="st1" points="20.44,37.34 14.81,27.59 21.2,16.53 30.93,16.53 35.04,9.42 39.6,12.06 33.98,21.8 24.24,21.8 
			20.9,27.59 25,34.71 		"/>
	</g>
</g>
</svg>
