<?xml version="1.0" encoding="utf-8"?>
<!-- Generator: Adobe Illustrator 24.2.1, SVG Export Plug-In . SVG Version: 6.00 Build 0)  -->
<svg version="1.1" xmlns="http://www.w3.org/2000/svg" xmlns:xlink="http://www.w3.org/1999/xlink" x="0px" y="0px"
	 viewBox="0 0 48 48" style="enable-background:new 0 0 48 48;" xml:space="preserve">
<style type="text/css">
	.st0{fill:#FAF9F6;}
	.st1{fill:#3A5F3E;}
	.st2{fill:#3A5F3E;stroke:#FFFFFF;stroke-width:8.5039;stroke-miterlimit:10;}
	.st3{fill:#261F1C;}
	.st4{fill:#FFFFFF;}
	.st5{fill:#C53B2D;}
	.st6{fill:none;stroke:#3A5F3E;stroke-width:2.8346;stroke-miterlimit:10;}
	.st7{fill:none;stroke:#FF0000;stroke-miterlimit:10;}
	.st8{fill:none;stroke:#FF0000;stroke-miterlimit:10;stroke-dasharray:11.9893,11.9893;}
	.st9{fill:none;stroke:#C53B2D;stroke-width:2.8346;stroke-miterlimit:10;}
	.st10{fill:none;stroke:#3A5F3E;stroke-width:3.4016;stroke-miterlimit:10;}
	.st11{fill:none;stroke:#FF0000;stroke-miterlimit:10;stroke-dasharray:11.6938,11.6938;}
	.st12{fill:none;stroke:#C53B2D;stroke-width:2.4341;stroke-miterlimit:10;}
	.st13{fill:none;stroke:#FFFFFF;stroke-width:5.684;stroke-miterlimit:10;}
	.st14{fill:none;stroke:#FFFFFF;stroke-width:4.3765;stroke-miterlimit:10;}
	.st15{fill:none;stroke:#C53B2D;stroke-width:2.1826;stroke-miterlimit:10;}
	.st16{fill:none;stroke:#261F1C;stroke-width:2.842;stroke-miterlimit:10;}
	.st17{fill:none;stroke:#261F1C;stroke-width:2.7435;stroke-miterlimit:10;}
	.st18{fill:none;stroke:#3A5F3E;stroke-width:9.0371;stroke-miterlimit:10;}
	.st19{fill:none;stroke:#3A5F3E;stroke-width:5.214;stroke-miterlimit:10;}
	.st20{fill:none;stroke:#261F1C;stroke-miterlimit:10;}
	.st21{fill:#979797;}
</style>
<g id="レイヤー_2">
</g>
<g id="レイヤー_1">
	<g>
		<path class="st1" d="M23.92,46.2c-0.09,0-0.17,0-0.25,0c-5.95-0.06-11.5-2.1-15.63-5.74c-4.71-4.15-7.19-9.99-7.19-16.91v-4.68
			h5.18v4.68c0,11.88,9.17,17.38,17.69,17.46c0.07,0,0.14,0,0.21,0c8.5,0,17.67-5.29,17.9-17v-5.15h5.18v5.2
			C46.72,38.66,35.22,46.2,23.92,46.2z"/>
		<rect x="8.62" y="18.89" class="st1" width="35.8" height="5.18"/>
		<polygon class="st1" points="19.98,24.03 16.76,19.96 31.6,8.24 36.97,1.5 41.03,4.73 35.28,11.94 		"/>
		
			<rect x="25.68" y="13.45" transform="matrix(0.2586 -0.966 0.966 0.2586 8.1112 42.6572)" class="st1" width="12.32" height="5.18"/>
	</g>
</g>
</svg>
