<?xml version="1.0" encoding="utf-8"?>
<!-- Generator: Adobe Illustrator 24.2.1, SVG Export Plug-In . SVG Version: 6.00 Build 0)  -->
<svg version="1.1" xmlns="http://www.w3.org/2000/svg" xmlns:xlink="http://www.w3.org/1999/xlink" x="0px" y="0px"
	 viewBox="0 0 48 48" style="enable-background:new 0 0 48 48;" xml:space="preserve">
<style type="text/css">
	.st0{fill:#FAF9F6;}
	.st1{fill:#3A5F3E;}
	.st2{fill:#3A5F3E;stroke:#FFFFFF;stroke-width:8.5039;stroke-miterlimit:10;}
	.st3{fill:#261F1C;}
	.st4{fill:#FFFFFF;}
	.st5{fill:#C53B2D;}
	.st6{fill:none;stroke:#3A5F3E;stroke-width:2.8346;stroke-miterlimit:10;}
	.st7{fill:none;stroke:#FF0000;stroke-miterlimit:10;}
	.st8{fill:none;stroke:#FF0000;stroke-miterlimit:10;stroke-dasharray:11.9893,11.9893;}
	.st9{fill:none;stroke:#C53B2D;stroke-width:2.8346;stroke-miterlimit:10;}
	.st10{fill:none;stroke:#3A5F3E;stroke-width:3.4016;stroke-miterlimit:10;}
	.st11{fill:none;stroke:#FF0000;stroke-miterlimit:10;stroke-dasharray:11.6938,11.6938;}
	.st12{fill:none;stroke:#C53B2D;stroke-width:2.4341;stroke-miterlimit:10;}
	.st13{fill:none;stroke:#FFFFFF;stroke-width:5.684;stroke-miterlimit:10;}
	.st14{fill:none;stroke:#FFFFFF;stroke-width:4.3765;stroke-miterlimit:10;}
	.st15{fill:none;stroke:#C53B2D;stroke-width:2.1826;stroke-miterlimit:10;}
	.st16{fill:none;stroke:#261F1C;stroke-width:2.842;stroke-miterlimit:10;}
	.st17{fill:none;stroke:#261F1C;stroke-width:2.7435;stroke-miterlimit:10;}
	.st18{fill:none;stroke:#3A5F3E;stroke-width:9.0371;stroke-miterlimit:10;}
	.st19{fill:none;stroke:#3A5F3E;stroke-width:5.214;stroke-miterlimit:10;}
	.st20{fill:none;stroke:#261F1C;stroke-miterlimit:10;}
	.st21{fill:#979797;}
</style>
<g id="レイヤー_2">
</g>
<g id="レイヤー_1">
	<g>
		<rect x="10.22" y="0.57" class="st1" width="5.36" height="46.72"/>
		<path class="st1" d="M36.61,47.29h-5.36V0.43l2.81,0.14c3.77,0.19,7.58,3.14,10.18,7.91c3.32,6.08,4.94,15.91-0.45,25.28
			l-4.64-2.67c4.29-7.46,3.01-15.24,0.39-20.05c-0.92-1.68-1.95-2.92-2.94-3.76V47.29z"/>
		<path class="st1" d="M12.9,19.74c-4.08,0-9.07-1.61-10.85-6.12c-1.09-2.76-0.8-5.63-0.48-8.68c0.15-1.42,0.3-2.9,0.3-4.37h5.36
			c0,1.75-0.17,3.43-0.33,4.92c-0.25,2.48-0.47,4.62,0.14,6.16c0.75,1.89,3.49,2.73,5.87,2.73V19.74z"/>
		<path class="st1" d="M12.9,19.74v-5.36c2.38,0,5.13-0.85,5.87-2.73c0.61-1.54,0.39-3.68,0.14-6.16C18.76,4,18.59,2.31,18.59,0.57
			h5.36c0,1.47,0.15,2.95,0.3,4.37c0.31,3.04,0.61,5.92-0.48,8.68C21.97,18.13,16.98,19.74,12.9,19.74z"/>
	</g>
</g>
</svg>
