<?xml version="1.0" encoding="utf-8"?>
<!-- Generator: Adobe Illustrator 24.2.1, SVG Export Plug-In . SVG Version: 6.00 Build 0)  -->
<svg version="1.1" xmlns="http://www.w3.org/2000/svg" xmlns:xlink="http://www.w3.org/1999/xlink" x="0px" y="0px"
	 viewBox="0 0 48 48" style="enable-background:new 0 0 48 48;" xml:space="preserve">
<style type="text/css">
	.st0{fill:#FAF9F6;}
	.st1{fill:#3A5F3E;}
	.st2{fill:#3A5F3E;stroke:#FFFFFF;stroke-width:8.5039;stroke-miterlimit:10;}
	.st3{fill:#261F1C;}
	.st4{fill:#FFFFFF;}
	.st5{fill:#C53B2D;}
	.st6{fill:none;stroke:#3A5F3E;stroke-width:2.8346;stroke-miterlimit:10;}
	.st7{fill:none;stroke:#FF0000;stroke-miterlimit:10;}
	.st8{fill:none;stroke:#FF0000;stroke-miterlimit:10;stroke-dasharray:11.9893,11.9893;}
	.st9{fill:none;stroke:#C53B2D;stroke-width:2.8346;stroke-miterlimit:10;}
	.st10{fill:none;stroke:#3A5F3E;stroke-width:3.4016;stroke-miterlimit:10;}
	.st11{fill:none;stroke:#FF0000;stroke-miterlimit:10;stroke-dasharray:11.6938,11.6938;}
	.st12{fill:none;stroke:#C53B2D;stroke-width:2.4341;stroke-miterlimit:10;}
	.st13{fill:none;stroke:#FFFFFF;stroke-width:5.684;stroke-miterlimit:10;}
	.st14{fill:none;stroke:#FFFFFF;stroke-width:4.3765;stroke-miterlimit:10;}
	.st15{fill:none;stroke:#C53B2D;stroke-width:2.1826;stroke-miterlimit:10;}
	.st16{fill:none;stroke:#261F1C;stroke-width:2.842;stroke-miterlimit:10;}
	.st17{fill:none;stroke:#261F1C;stroke-width:2.7435;stroke-miterlimit:10;}
	.st18{fill:none;stroke:#3A5F3E;stroke-width:9.0371;stroke-miterlimit:10;}
	.st19{fill:none;stroke:#3A5F3E;stroke-width:5.214;stroke-miterlimit:10;}
	.st20{fill:none;stroke:#261F1C;stroke-miterlimit:10;}
	.st21{fill:#979797;}
</style>
<g id="レイヤー_2">
</g>
<g id="レイヤー_1">
	<g>
		<path class="st1" d="M24.02,22.61c-5.74,0-10.41-4.67-10.41-10.41c0-5.74,4.67-10.41,10.41-10.41S34.44,6.46,34.44,12.2
			C34.44,17.94,29.77,22.61,24.02,22.61z M24.02,6.23c-3.29,0-5.97,2.68-5.97,5.97s2.68,5.97,5.97,5.97S30,15.5,30,12.2
			S27.32,6.23,24.02,6.23z"/>
		<polygon class="st1" points="16.15,46.45 11.71,46.45 11.71,36.55 5.54,40.43 0.01,31.18 18.19,19.65 20.57,23.4 6.04,32.61 
			7.02,34.25 16.15,28.5 		"/>
		<polygon class="st1" points="36.34,46.45 31.9,46.45 31.9,28.5 41.03,34.25 42.01,32.61 27.48,23.4 29.86,19.65 48.04,31.18 
			42.51,40.43 36.34,36.55 		"/>
	</g>
</g>
</svg>
