<?xml version="1.0" encoding="utf-8"?>
<!-- Generator: Adobe Illustrator 24.2.1, SVG Export Plug-In . SVG Version: 6.00 Build 0)  -->
<svg version="1.1" xmlns="http://www.w3.org/2000/svg" xmlns:xlink="http://www.w3.org/1999/xlink" x="0px" y="0px"
	 viewBox="0 0 48 48" style="enable-background:new 0 0 48 48;" xml:space="preserve">
<style type="text/css">
	.st0{fill:#FAF9F6;}
	.st1{fill:#3A5F3E;}
	.st2{fill:#3A5F3E;stroke:#FFFFFF;stroke-width:8.5039;stroke-miterlimit:10;}
	.st3{fill:#261F1C;}
	.st4{fill:#FFFFFF;}
	.st5{fill:#C53B2D;}
	.st6{fill:none;stroke:#3A5F3E;stroke-width:2.8346;stroke-miterlimit:10;}
	.st7{fill:none;stroke:#FF0000;stroke-miterlimit:10;}
	.st8{fill:none;stroke:#FF0000;stroke-miterlimit:10;stroke-dasharray:11.9893,11.9893;}
	.st9{fill:none;stroke:#C53B2D;stroke-width:2.8346;stroke-miterlimit:10;}
	.st10{fill:none;stroke:#3A5F3E;stroke-width:3.4016;stroke-miterlimit:10;}
	.st11{fill:none;stroke:#FF0000;stroke-miterlimit:10;stroke-dasharray:11.6938,11.6938;}
	.st12{fill:none;stroke:#C53B2D;stroke-width:2.4341;stroke-miterlimit:10;}
	.st13{fill:none;stroke:#FFFFFF;stroke-width:5.684;stroke-miterlimit:10;}
	.st14{fill:none;stroke:#FFFFFF;stroke-width:4.3765;stroke-miterlimit:10;}
	.st15{fill:none;stroke:#C53B2D;stroke-width:2.1826;stroke-miterlimit:10;}
	.st16{fill:none;stroke:#261F1C;stroke-width:2.842;stroke-miterlimit:10;}
	.st17{fill:none;stroke:#261F1C;stroke-width:2.7435;stroke-miterlimit:10;}
	.st18{fill:none;stroke:#3A5F3E;stroke-width:9.0371;stroke-miterlimit:10;}
	.st19{fill:none;stroke:#3A5F3E;stroke-width:5.214;stroke-miterlimit:10;}
	.st20{fill:none;stroke:#261F1C;stroke-miterlimit:10;}
	.st21{fill:#979797;}
</style>
<g id="レイヤー_2">
</g>
<g id="レイヤー_1">
	<g>
		
			<rect x="24.95" y="5.97" transform="matrix(0.7071 -0.7071 0.7071 0.7071 -12.1883 28.156)" class="st1" width="5.89" height="45.63"/>
		<path class="st1" d="M28.95,44.72c-8.57-1.01-15.74-4.99-20.74-11.5C2.5,25.79,0.19,15.81,1.73,5.12l0.31-2.18l2.18-0.31
			c10.69-1.53,20.67,0.77,28.1,6.48c6.51,5,10.49,12.18,11.5,20.74l-5.85,0.69c-0.82-6.96-4.02-12.75-9.24-16.77
			C23.08,9.43,15.53,7.48,7.3,8.19c-0.71,8.24,1.23,15.78,5.58,21.44c4.01,5.22,9.81,8.42,16.77,9.24L28.95,44.72z"/>
		
			<rect x="2.92" y="38.87" transform="matrix(0.7071 -0.7071 0.7071 0.7071 -27.4169 17.427)" class="st1" width="8.81" height="5.89"/>
		<path class="st1" d="M46.66,16.48l-5.84-0.72c0.3-2.45,0.34-4.99,0.12-7.57C38.46,7.98,36,8.01,33.64,8.28l-0.68-5.85
			c3.58-0.41,7.3-0.35,11.06,0.19l2.18,0.31l0.31,2.18C47.07,8.99,47.12,12.81,46.66,16.48z"/>
	</g>
</g>
</svg>
