<?xml version="1.0" encoding="utf-8"?>
<!-- Generator: Adobe Illustrator 24.2.1, SVG Export Plug-In . SVG Version: 6.00 Build 0)  -->
<svg version="1.1" xmlns="http://www.w3.org/2000/svg" xmlns:xlink="http://www.w3.org/1999/xlink" x="0px" y="0px"
	 viewBox="0 0 212.08 48.5" style="enable-background:new 0 0 212.08 48.5;" xml:space="preserve">
<style type="text/css">
	.st0{fill:#FAF9F6;}
	.st1{fill:#3A5F3E;}
	.st2{fill:#3A5F3E;stroke:#FFFFFF;stroke-width:8.5039;stroke-miterlimit:10;}
	.st3{fill:#261F1C;}
	.st4{fill:#FFFFFF;}
	.st5{fill:#C53B2D;}
	.st6{fill:none;stroke:#3A5F3E;stroke-width:2.8346;stroke-miterlimit:10;}
	.st7{fill:none;stroke:#FF0000;stroke-miterlimit:10;}
	.st8{fill:none;stroke:#FF0000;stroke-miterlimit:10;stroke-dasharray:11.9893,11.9893;}
	.st9{fill:none;stroke:#C53B2D;stroke-width:2.8346;stroke-miterlimit:10;}
	.st10{fill:none;stroke:#3A5F3E;stroke-width:3.4016;stroke-miterlimit:10;}
	.st11{fill:none;stroke:#FF0000;stroke-miterlimit:10;stroke-dasharray:11.6938,11.6938;}
	.st12{fill:none;stroke:#C53B2D;stroke-width:2.4341;stroke-miterlimit:10;}
	.st13{fill:none;stroke:#FFFFFF;stroke-width:5.684;stroke-miterlimit:10;}
	.st14{fill:none;stroke:#FFFFFF;stroke-width:4.3765;stroke-miterlimit:10;}
	.st15{fill:none;stroke:#C53B2D;stroke-width:2.1826;stroke-miterlimit:10;}
	.st16{fill:none;stroke:#261F1C;stroke-width:2.842;stroke-miterlimit:10;}
	.st17{fill:none;stroke:#261F1C;stroke-width:2.7435;stroke-miterlimit:10;}
	.st18{fill:none;stroke:#3A5F3E;stroke-width:9.0371;stroke-miterlimit:10;}
	.st19{fill:none;stroke:#3A5F3E;stroke-width:5.214;stroke-miterlimit:10;}
	.st20{fill:none;stroke:#261F1C;stroke-miterlimit:10;}
	.st21{fill:#979797;}
</style>
<g id="レイヤー_2">
</g>
<g id="レイヤー_1">
	<g>
		<g>
			<path class="st1" d="M90.7,8c0-5.15-1.23-8-2.07-8C75.43,0,66.98,6.96,60.14,13.68c0.34,0.35,0.67,0.72,1.01,1.07
				c0.28,0.3,0.56,0.6,0.84,0.9c0.45,0.49,0.9,0.98,1.34,1.48c0.25,0.28,0.51,0.56,0.76,0.84c0.48,0.54,0.96,1.09,1.43,1.63
				c0.21,0.24,0.42,0.48,0.63,0.72c0.67,0.77,1.33,1.54,1.99,2.3c0.63,0.73,1.26,1.45,1.89,2.17c5.25-4.64,11.15-8.8,18.59-8.8
				C89.47,15.99,90.7,13.14,90.7,8z"/>
			<path class="st1" d="M29.96,0C10.29,0,0,12.51,0,24.87c0,6.24,2.59,12.01,7.3,16.23c5.38,4.84,13.21,7.39,22.65,7.39
				c13.5,0,24.83-9.17,34.14-18.14l0.57-0.55l0.57,0.55c8.83,8.6,18.71,16.99,33.77,16.99c0.92,0,1.25-0.6,1.25-1.11
				s-0.33-1.11-1.25-1.11c-12.07,0-20.69-8.45-29.1-18.02l0,0l-0.55-0.62c-0.81-0.93-1.62-1.86-2.43-2.8
				c-2.74-3.17-5.57-6.44-8.51-9.45C51.51,7.2,42.74,0,29.96,0z M53.58,20.35C46.81,27.22,39.92,33.39,30,33.39
				c-5.09,0-9.32-1.17-12.24-3.39c-2.65-2.02-4.11-4.81-4.11-7.88c0-6.18,6.1-12.75,17.4-12.75c9.86,0,17.19,5.23,22.48,9.78
				l0.66,0.57L53.58,20.35z"/>
		</g>
		<g>
			<path class="st3" d="M123.19,8.59c-10.23,0-16.95,5.44-16.95,15.13s6.72,15.13,16.95,15.13s16.95-5.44,16.95-15.13
				S133.42,8.59,123.19,8.59z M123.19,37.1c-5.8,0-9.6-4.81-9.6-13.38c0-8.57,3.8-13.38,9.6-13.38s9.6,4.81,9.6,13.38
				C132.79,32.3,128.98,37.1,123.19,37.1z"/>
			<path class="st3" d="M173.17,36.57c-2.37,0-4.59-1.17-5.92-3.13l-7.3-10.69l9-11.87h2.81V8.9h-8.3l-6.81,9.01l-4.02-5.89
				c-1.34-1.96-3.55-3.13-5.92-3.13h-5.52v1.98c2.36,0,4.58,1.16,5.91,3.11l5.96,8.68l-10.5,13.9h-2.88v1.98h8.3l8.39-11.06
				l5.46,7.95c1.34,1.95,3.55,3.11,5.91,3.11h5.53v-1.98H173.17z"/>
		</g>
		<g>
			<path class="st3" d="M178.53,14.92l0.57-0.81c0.52,0.53,1.04,0.83,1.72,0.83c0.59,0,0.96-0.32,0.96-0.81v-0.02
				c0-0.46-0.22-0.71-1.23-0.98c-1.16-0.33-1.81-0.73-1.81-1.91v-0.02c0-1.1,0.78-1.86,1.86-1.86c0.79,0,1.42,0.28,1.97,0.81
				l-0.51,0.85c-0.49-0.43-0.98-0.66-1.47-0.66c-0.56,0-0.89,0.34-0.89,0.76v0.02c0,0.5,0.25,0.71,1.29,1.01
				c1.15,0.33,1.75,0.81,1.75,1.88v0.02c0,1.2-0.8,1.91-1.94,1.91C179.97,15.94,179.18,15.6,178.53,14.92z"/>
			<path class="st3" d="M185.2,10.49h-1.72V9.44h4.41v1.04h-1.72v5.37h-0.96V10.49z"/>
			<path class="st3" d="M188.89,9.44h2.42c0.68,0,1.22,0.24,1.57,0.64c0.29,0.35,0.45,0.82,0.45,1.38v0.02
				c0,1.05-0.54,1.68-1.3,1.94l1.47,2.43h-1.12l-1.34-2.23h-1.2v2.23h-0.96V9.44z M191.25,12.62c0.68,0,1.12-0.42,1.12-1.07v-0.02
				c0-0.69-0.42-1.06-1.13-1.06h-1.39v2.15H191.25z"/>
			<path class="st3" d="M194.26,12.67v-0.02c0-1.8,1.18-3.31,2.85-3.31s2.83,1.49,2.83,3.3v0.02c0,1.8-1.18,3.31-2.85,3.31
				S194.26,14.47,194.26,12.67z M198.95,12.67v-0.02c0-1.25-0.77-2.28-1.85-2.28s-1.83,1.02-1.83,2.26v0.02
				c0,1.25,0.77,2.28,1.85,2.28S198.95,13.91,198.95,12.67z"/>
			<path class="st3" d="M201.1,9.44h0.88l2.91,4.43V9.44h0.94v6.41h-0.8l-3-4.56v4.56h-0.94V9.44z"/>
			<path class="st3" d="M207,12.67v-0.02c0-1.79,1.16-3.31,2.8-3.31c0.95,0,1.53,0.31,2.09,0.87l-0.61,0.85
				c-0.42-0.42-0.83-0.69-1.52-0.69c-1,0-1.76,1.04-1.76,2.26v0.02c0,1.32,0.74,2.29,1.85,2.29c0.51,0,0.98-0.19,1.31-0.48v-1.2
				h-1.39v-0.98h2.31v2.69c-0.54,0.54-1.31,1-2.27,1C208.11,15.96,207,14.53,207,12.67z"/>
			<path class="st3" d="M181.94,26.19c-0.46,0.51-1.01,0.83-1.67,0.83c-1.01,0-1.77-0.72-1.77-1.83v-0.02
				c0-0.82,0.41-1.42,1.16-1.79c-0.31-0.47-0.45-0.87-0.45-1.34v-0.02c0-0.86,0.59-1.61,1.56-1.61c0.86,0,1.45,0.69,1.45,1.55v0.02
				c0,0.84-0.47,1.35-1.2,1.67l0.93,1.12c0.21-0.37,0.4-0.79,0.58-1.24l0.72,0.45c-0.22,0.51-0.46,1.02-0.74,1.46l0.85,1.03
				l-0.71,0.59L181.94,26.19z M181.4,25.53l-1.21-1.46c-0.51,0.26-0.72,0.65-0.72,1.06v0.02c0,0.54,0.38,0.93,0.91,0.93
				C180.74,26.09,181.08,25.88,181.4,25.53z M181.36,22.04v-0.02c0-0.43-0.26-0.72-0.62-0.72c-0.39,0-0.64,0.32-0.64,0.77v0.02
				c0,0.32,0.11,0.56,0.41,0.95C181.07,22.8,181.36,22.5,181.36,22.04z"/>
			<path class="st3" d="M178.9,31.88h0.96v5.38h2.86v1.03h-3.81V31.88z"/>
			<path class="st3" d="M183.75,31.88h0.96v6.41h-0.96V31.88z"/>
			<path class="st3" d="M185.7,31.88h1.05l1.64,4.93l1.63-4.93h1.03l-2.26,6.46h-0.84L185.7,31.88z"/>
			<path class="st3" d="M191.98,31.88h4.03v1.01h-3.08v1.67h2.73v1.01h-2.73v1.72h3.12v1.01h-4.07V31.88z"/>
			<path class="st3" d="M197.18,31.88h0.96v5.38H201v1.03h-3.81V31.88z"/>
			<path class="st3" d="M203.59,35.76l-2.16-3.88h1.13l1.52,2.84l1.54-2.84h1.09l-2.16,3.85v2.55h-0.96V35.76z"/>
		</g>
	</g>
</g>
</svg>
