<svg xmlns="http://www.w3.org/2000/svg" width="34.151" height="17.075" viewBox="0 0 34.151 17.075">
    <defs>
        <style>
            .prefix__cls-1{fill:#fff}
        </style>
    </defs>
    <g id="prefix__oxlogo" transform="translate(-9788.44 2484.77)">
        <path id="prefix__パス_4914" d="M83.19 179.305a8.459 8.459 0 0 1-8.75-8.49v-.048a8.777 8.777 0 0 1 17.547-.047v.047a8.536 8.536 0 0 1-8.797 8.538zm0-13.726a4.937 4.937 0 0 0-4.953 5.142v.047a5.016 5.016 0 0 0 5 5.189 4.937 4.937 0 0 0 4.953-5.142v-.048a5.014 5.014 0 0 0-5-5.188z" class="prefix__cls-1" data-name="パス 4914" transform="translate(9714 -2647)"/>
        <path id="prefix__パス_4915" d="M270.953 175.979l-3.726 5.66H263.1l5.754-8.4-5.519-8.113h4.245l3.467 5.354 3.491-5.354h4.127l-5.519 8.066 5.754 8.443h-4.246z" class="prefix__cls-1" data-name="パス 4915" transform="translate(9543.69 -2649.618)"/>
    </g>
</svg>
