<?xml version="1.0" encoding="utf-8"?>
<!-- Generator: Adobe Illustrator 26.0.2, SVG Export Plug-In . SVG Version: 6.00 Build 0)  -->
<svg version="1.1" xmlns="http://www.w3.org/2000/svg" xmlns:xlink="http://www.w3.org/1999/xlink" x="0px" y="0px"
	 viewBox="0 0 386.84 130.29" style="enable-background:new 0 0 386.84 130.29;" xml:space="preserve">
<style type="text/css">
	.st0{fill:#9E9E9F;}
	.st1{fill:none;stroke:#C83B2D;stroke-miterlimit:10;}
	.st2{fill:#251E1C;stroke:#FFFFFF;stroke-width:0.7963;stroke-miterlimit:10;}
	.st3{fill:#251E1C;}
	.st4{fill:#395F3E;}
	.st5{fill:none;stroke:#C83B2D;stroke-width:2.133;stroke-miterlimit:10;}
	.st6{fill:none;stroke:#FFFFFF;stroke-width:0.2835;stroke-miterlimit:10;}
	.st7{fill:#211815;}
	.st8{fill:#FFFFFF;}
	.st9{fill:#2D5D3D;}
	.st10{fill:none;stroke:#D64835;stroke-width:2.133;stroke-miterlimit:10;}
	.st11{fill:none;stroke:#D64835;stroke-width:0.4405;stroke-miterlimit:10;}
	.st12{fill:none;stroke:#D64835;stroke-width:0.2643;stroke-miterlimit:10;}
	.st13{fill:none;stroke:#D64835;stroke-width:0.1586;stroke-miterlimit:10;}
	.st14{fill:#DCDDDD;}
	.st15{fill:none;stroke:#211815;stroke-miterlimit:10;}
	.st16{fill:#111111;}
	.st17{fill:#F0F0F0;}
	.st18{fill:#00A396;}
	.st19{fill:#FDFBF9;}
	.st20{fill:#D64835;}
	.st21{fill:#9FA0A0;}
	.st22{clip-path:url(#SVGID_00000047023634283380757670000009123667245872362654_);}
	.st23{clip-path:url(#SVGID_00000103247670478689597200000010912440671872130986_);fill:#FDFBF9;}
	.st24{clip-path:url(#SVGID_00000103247670478689597200000010912440671872130986_);}
	.st25{clip-path:url(#SVGID_00000008128096273918963340000001607622847970419646_);}
	.st26{fill:none;stroke:#D64835;stroke-width:0.2205;stroke-miterlimit:10;}
	.st27{fill:none;}
	.st28{stroke:#FFFFFF;stroke-width:8.5039;stroke-miterlimit:10;}
	.st29{fill:#2D5D3D;stroke:#FFFFFF;stroke-width:8.5039;stroke-miterlimit:10;}
	.st30{fill:none;stroke:#211815;stroke-width:25.5118;stroke-miterlimit:10;}
	.st31{fill:#2D5D3D;stroke:#FFFFFF;stroke-width:1.6376;stroke-miterlimit:10;}
	.st32{fill:#2D5D3D;stroke:#FFFFFF;stroke-width:3.7223;stroke-miterlimit:10;}
	.st33{fill:#2D5D3D;stroke:#FFFFFF;stroke-width:2.5917;stroke-miterlimit:10;}
	.st34{fill:#2D5D3D;stroke:#FFFFFF;stroke-width:1.1144;stroke-miterlimit:10;}
	.st35{fill:#2D5D3D;stroke:#FFFFFF;stroke-width:0.4803;stroke-miterlimit:10;}
</style>
<g id="レイヤー_1">
	<g>
		<path class="st9" d="M142.22,12.65c0-8.15-1.94-12.65-3.28-12.65c-20.88,0-34.25,11.01-45.08,21.65c0.54,0.56,1.07,1.14,1.61,1.71
			c0.44,0.47,0.89,0.93,1.32,1.41c0.72,0.78,1.44,1.57,2.15,2.37c0.39,0.43,0.78,0.86,1.16,1.29c0.82,0.92,1.63,1.84,2.43,2.76
			c0.27,0.31,0.54,0.62,0.81,0.92c1.07,1.23,2.13,2.45,3.18,3.66c1,1.16,2,2.31,3,3.46c8.31-7.34,17.65-13.92,29.41-13.92
			C140.28,25.31,142.22,20.8,142.22,12.65z"/>
		<path class="st9" d="M46.11,0C14.43,0,0,20.07,0,38.71c0,18.32,14.15,38.04,45.22,38.04c25.04,0,45.11-17.95,54.83-28.65l0.9-0.99
			l0.96,0.94c13.98,13.61,29.62,26.89,53.44,26.89c1.46,0,1.97-0.95,1.97-1.76c0-0.81-0.52-1.76-1.97-1.76
			c-19.1,0-32.74-13.37-46.06-28.52l0,0l-0.86-0.99c-1.29-1.47-2.58-2.96-3.87-4.46c-4.33-5-8.8-10.18-13.46-14.93
			C80.2,11.39,66.33,0,46.11,0z M83.48,32.21c-9.46,9.61-22.25,20.64-37.32,20.64c-7.82,0-14.36-1.89-18.89-5.48
			c-4.12-3.26-6.39-7.74-6.39-12.62c0-9.89,9.26-19.91,26.96-19.91c15.6,0,27.21,8.27,35.57,15.48l1.05,0.9L83.48,32.21z"/>
	</g>
	<path class="st9" d="M145.61,31.66l1.7,17.68c0.65,6.75,5.53,12.34,12.13,13.91l1.28,0.3c1.31,0.31,2.43-0.99,1.92-2.24
		l-10.84-26.5c-0.75-1.83-1.97-3.42-3.54-4.62l0,0C147.11,29.3,145.47,30.22,145.61,31.66z"/>
	<path class="st9" d="M193.42,89.93V65.61c0,0-0.83,9.8-0.83,14.21C192.59,84.23,193.42,89.93,193.42,89.93z"/>
	<path class="st9" d="M193.42,89.93V65.61c0,0,0.83,9.8,0.83,14.21C194.25,84.23,193.42,89.93,193.42,89.93z"/>
	<g>
		<path class="st9" d="M244.61,12.65c0-8.15,1.94-12.65,3.28-12.65c20.88,0,34.25,11.01,45.08,21.65c-0.54,0.56-1.07,1.14-1.61,1.71
			c-0.44,0.47-0.89,0.93-1.32,1.41c-0.72,0.78-1.44,1.57-2.15,2.37c-0.39,0.43-0.78,0.86-1.16,1.29c-0.82,0.92-1.63,1.84-2.43,2.76
			c-0.27,0.31-0.54,0.62-0.81,0.92c-1.07,1.23-2.13,2.45-3.18,3.66c-1,1.16-2,2.31-3,3.46c-8.31-7.34-17.65-13.92-29.41-13.92
			C246.55,25.31,244.61,20.8,244.61,12.65z"/>
		<path class="st9" d="M295.72,22.54c-4.65,4.75-9.13,9.93-13.46,14.93c-1.29,1.49-2.58,2.98-3.87,4.46l-0.86,0.99l0,0
			c-13.32,15.15-26.96,28.52-46.06,28.52c-1.46,0-1.97,0.95-1.97,1.76c0,0.81,0.52,1.76,1.97,1.76c23.83,0,39.46-13.28,53.44-26.89
			l0.96-0.94l0.9,0.99c9.73,10.7,29.79,28.65,54.83,28.65c31.07,0,45.22-19.72,45.22-38.04C386.84,20.07,372.41,0,340.73,0
			C320.51,0,306.63,11.39,295.72,22.54z M302.38,31.22l1.05-0.9c8.36-7.21,19.97-15.48,35.57-15.48c17.7,0,26.96,10.01,26.96,19.91
			c0,4.88-2.27,9.36-6.39,12.62c-4.54,3.58-11.07,5.48-18.89,5.48c-15.07,0-27.86-11.03-37.32-20.64L302.38,31.22z"/>
	</g>
	<path class="st9" d="M241.23,31.66l-1.7,17.68c-0.65,6.75-5.53,12.34-12.13,13.91l-1.28,0.3c-1.31,0.31-2.43-0.99-1.92-2.24
		l10.84-26.5c0.75-1.83,1.97-3.42,3.54-4.62l0,0C239.72,29.3,241.37,30.22,241.23,31.66z"/>
	<path class="st9" d="M181.94,89.35c0,0-0.03,7.98,0.72,13.22c0.66,4.59,1.71,7.95,3.9,10.28l0.13-4.46
		c0.34-1.06,1.81-1.14,2.25-0.12c0.44,1.02,0.99,2.08,1.61,2.9c0.82-2.68,0.82-2.68,0.82-2.68c0,3.23-1.37,19.14-4.31,19.14
		c-2.94,0-4.85-7.07-5.36-10.35s-1.32-11.76-0.72-17.57C181.49,94.69,181.94,89.35,181.94,89.35z"/>
	<path class="st9" d="M204.89,89.35c0,0,0.03,7.98-0.72,13.22c-0.66,4.59-1.71,7.95-3.9,10.28l-0.13-4.46
		c-0.34-1.06-1.81-1.14-2.25-0.12c-0.44,1.02-0.99,2.08-1.61,2.9c-0.82-2.68-0.82-2.68-0.82-2.68c0,3.23,1.37,19.14,4.31,19.14
		c2.94,0,4.85-7.07,5.36-10.35s1.32-11.76,0.72-17.57C205.34,94.69,204.89,89.35,204.89,89.35z"/>
</g>
<g id="レイヤー_2">
</g>
</svg>
