<?xml version="1.0" encoding="utf-8"?>
<!-- Generator: Adobe Illustrator 24.0.3, SVG Export Plug-In . SVG Version: 6.00 Build 0)  -->
<svg version="1.1" id="レイヤー_1" xmlns="http://www.w3.org/2000/svg" xmlns:xlink="http://www.w3.org/1999/xlink" x="0px"
	 y="0px" viewBox="0 0 500 500" style="enable-background:new 0 0 500 500;" xml:space="preserve">
<style type="text/css">
	.st0{fill:none;}
	.st1{fill:#333333;}
	.st2{fill:#FFFFFF;}
	.st3{fill:#3AAA98;}
	.st4{fill:#606060;}
	.st5{enable-background:new    ;}
	.st6{clip-path:url(#SVGID_2_);enable-background:new    ;}
	.st7{fill:#A8A8A8;}
	.st8{fill:#A3A3A3;}
	.st9{fill:#9E9E9E;}
	.st10{clip-path:url(#SVGID_4_);enable-background:new    ;}
	.st11{clip-path:url(#SVGID_6_);enable-background:new    ;}
	.st12{fill:#858585;}
	.st13{clip-path:url(#SVGID_8_);enable-background:new    ;}
	.st14{fill:#8F8F8F;}
	.st15{fill:#949494;}
	.st16{fill:#999999;}
	.st17{clip-path:url(#SVGID_10_);enable-background:new    ;}
	.st18{fill:#8A8A8A;}
	.st19{clip-path:url(#SVGID_12_);enable-background:new    ;}
	.st20{clip-path:url(#SVGID_14_);enable-background:new    ;}
	.st21{fill:#DFDFDF;}
	.st22{clip-path:url(#SVGID_16_);enable-background:new    ;}
	.st23{clip-path:url(#SVGID_18_);enable-background:new    ;}
	.st24{clip-path:url(#SVGID_20_);enable-background:new    ;}
	.st25{clip-path:url(#SVGID_22_);enable-background:new    ;}
	.st26{clip-path:url(#SVGID_24_);enable-background:new    ;}
	.st27{clip-path:url(#SVGID_26_);enable-background:new    ;}
	.st28{clip-path:url(#SVGID_28_);enable-background:new    ;}
</style>
<rect x="0.26" y="0" class="st0" width="500" height="500"/>
<rect x="1915" y="-1070" class="st1" width="500" height="500"/>
<rect x="1532" y="625" class="st1" width="500" height="500"/>
<rect x="-1160" y="519" class="st1" width="500" height="500"/>
<rect x="2124" y="625" class="st2" width="500" height="500"/>
<rect x="2126" y="-57" class="st2" width="500" height="500"/>
<rect x="1518" y="1381.81" class="st1" width="500" height="500"/>
<rect x="2110" y="1381.81" class="st2" width="500" height="500"/>
<g>
	<g>
		<g>
			<path class="st3" d="M1160.78-326.93l-140.71-0.26c-20.16-0.22-32.67,29.3-22.2,52.38v0l41.93-4.98c2.33-0.64,4.1-0.97,6.49-1.26
				c2.71-0.33,6.03-0.73,9.85-1.18c1.25-0.21,2.46-0.35,3.6-0.43c13.11-1.54,30.77-3.54,48.43-5.25l53.41-7.4L1160.78-326.93z"/>
			<path class="st3" d="M1168.84-334.57c9.28-6.04,15.73-15.59,18.63-28.12c5.47-23.64-8.04-51.37-32.21-71.47
				c40.53,21,66.57,57.36,61.33,90.37c-6.46,40.75-58.12,60.99-115.37,45.2c-6.07-1.67-11.96-3.69-17.63-5.99
				C1117.78-300.42,1149.63-314.66,1168.84-334.57z"/>
			<path class="st3" d="M1139.69-327.02l0.02,0l-3.55,0.03l25.08,3.13l8.67-11.36C1161.89-329.63,1151.65-326.78,1139.69-327.02z"/>
		</g>
		<g>
			<path class="st3" d="M874.68-326.94l140.71-0.26c20.16-0.22,32.67,29.3,22.2,52.38v0l-41.93-4.98c-2.33-0.64-4.1-0.97-6.49-1.26
				c-2.71-0.33-6.03-0.73-9.85-1.18c-1.25-0.21-2.46-0.35-3.6-0.43c-13.11-1.54-30.77-3.54-48.43-5.25l-53.41-7.4L874.68-326.94z"/>
			<path class="st3" d="M866.62-334.57c-9.28-6.04-15.73-15.59-18.63-28.12c-5.47-23.64,8.04-51.37,32.21-71.47
				c-40.53,21-66.57,57.36-61.33,90.37c6.46,40.75,58.12,60.99,115.37,45.2c6.07-1.67,11.96-3.69,17.63-5.99
				C917.68-300.43,885.84-314.66,866.62-334.57z"/>
			<path class="st3" d="M895.78-327.02l-0.01,0l3.55,0.03l-25.08,3.13l-8.67-11.36C873.57-329.64,883.81-326.78,895.78-327.02z"/>
		</g>
	</g>
	<polygon class="st3" points="1017.49,-68.65 917.42,-327.3 1117.56,-327.3 	"/>
	<polygon class="st2" points="1016.24,-138.38 1005.41,-166.17 1082.46,-365.41 1101.28,-358.13 	"/>
	<polygon class="st2" points="1049.94,-350.58 1028.35,-350.68 944.83,-138.74 963.61,-131.34 	"/>
	<polygon class="st2" points="967.85,-256.9 996.23,-329.56 939.47,-329.56 	"/>
</g>
<g>
	<g>
		<g>
			<path class="st3" d="M674.68,174.07l140.71-0.26c20.16-0.22,32.67,29.3,22.2,52.38v0l-41.93-4.98c-2.33-0.64-4.1-0.97-6.49-1.26
				c-2.71-0.33-6.03-0.73-9.85-1.18c-1.25-0.21-2.46-0.35-3.6-0.43c-13.11-1.54-30.77-3.54-48.43-5.25l-53.41-7.4L674.68,174.07z"/>
			<path class="st3" d="M666.62,166.43c-9.28-6.04-15.73-15.59-18.63-28.12c-5.47-23.64,8.04-51.37,32.21-71.47
				c-40.53,21-66.57,57.36-61.33,90.37c6.46,40.75,58.12,60.99,115.37,45.2c6.07-1.67,11.96-3.69,17.63-5.99
				C717.68,200.58,685.84,186.34,666.62,166.43z"/>
			<path class="st3" d="M695.78,173.98l-0.01,0l3.55,0.03l-25.08,3.13l-8.67-11.36C673.57,171.37,683.81,174.22,695.78,173.98z"/>
		</g>
		<g>
			<path class="st3" d="M960.78,174.06l-140.71-0.26c-20.16-0.22-32.67,29.3-22.2,52.38v0l41.93-4.98c2.33-0.64,4.1-0.97,6.49-1.26
				c2.71-0.33,6.03-0.73,9.85-1.18c1.25-0.21,2.46-0.35,3.6-0.43c13.11-1.54,30.77-3.54,48.43-5.25l53.41-7.4L960.78,174.06z"/>
			<path class="st3" d="M968.84,166.43c9.28-6.04,15.73-15.59,18.63-28.12c5.47-23.64-8.04-51.37-32.21-71.47
				c40.53,21,66.57,57.36,61.33,90.37c-6.46,40.75-58.12,60.99-115.37,45.2c-6.07-1.67-11.96-3.69-17.63-5.99
				C917.78,200.57,949.63,186.34,968.84,166.43z"/>
			<path class="st3" d="M939.69,173.98l0.01,0l-3.55,0.03l25.08,3.13l8.67-11.36C961.89,171.36,951.65,174.22,939.69,173.98z"/>
		</g>
	</g>
	<polygon class="st3" points="817.97,432.35 918.04,173.7 717.91,173.7 	"/>
	<polygon class="st2" points="819.22,362.62 830.06,334.83 753.01,135.59 734.18,142.87 	"/>
	<polygon class="st2" points="785.52,150.42 807.11,150.32 890.63,362.26 871.85,369.66 	"/>
	<polygon class="st2" points="867.61,244.1 839.23,171.44 896,171.44 	"/>
</g>
<path class="st3" d="M-459.9-345.19c24.13,20.07,37.62,47.77,32.17,71.38c-2.89,12.52-9.34,22.05-18.61,28.08
	c-0.05,0.05-0.1,0.1-0.15,0.15c-7.81,5.04-17.61,7.61-28.97,7.39l0.01,0l-3.55,0.03l0.05,0.01l-41.77-0.08l-18.02,42.44
	c0.02,0,0.04-0.01,0.07-0.01l-10.87,25.61l-28.76-67.76h-69.12l62.23,160.92l-10.82,27.76l-56.57-146.17c0.03,0,0.06,0.01,0.09,0.01
	l-16.57-42.82l-46.51,0.09l0.05-0.01l-3.55-0.03l0.02,0c-11.36,0.23-21.16-2.35-28.97-7.39c-0.05-0.05-0.1-0.1-0.15-0.15
	c-9.27-6.03-15.71-15.57-18.61-28.08c-5.46-23.61,8.03-51.31,32.17-71.38c-40.48,20.98-66.48,57.28-61.25,90.26
	c4.56,28.73,31.6,47.24,67.23,50.11l41.08,5.69c1.87,0.18,3.74,0.37,5.61,0.55l84.71,218.96l38.82-100.33l-54.43-138.23l21.56-0.09
	l43.59,110.61l35.17-90.91c1.87-0.19,3.74-0.37,5.61-0.55l41.08-5.69c35.62-2.87,62.67-21.38,67.23-50.11
	C-393.42-287.9-419.42-324.21-459.9-345.19z"/>
<path class="st3" d="M-734.64,33.81c-24.13,20.07-37.62,47.77-32.17,71.38c2.89,12.52,9.34,22.05,18.61,28.08
	c0.05,0.05,0.1,0.1,0.15,0.15c7.81,5.04,17.61,7.61,28.97,7.39l-0.01,0l3.55,0.03l-0.05,0.01l41.77-0.08l18.02,42.44
	c-0.02,0-0.04-0.01-0.07-0.01l10.87,25.61l28.76-67.76h69.12l-62.23,160.92l10.82,27.76l56.57-146.17c-0.03,0-0.06,0.01-0.09,0.01
	l16.57-42.82l46.51,0.09l-0.05-0.01l3.55-0.03l-0.02,0c11.36,0.23,21.16-2.35,28.97-7.39c0.05-0.05,0.1-0.1,0.15-0.15
	c9.27-6.03,15.71-15.57,18.61-28.08c5.46-23.61-8.03-51.31-32.17-71.38c40.48,20.98,66.48,57.28,61.25,90.26
	c-4.56,28.73-31.6,47.24-67.23,50.11l-41.08,5.69c-1.87,0.18-3.74,0.37-5.61,0.55l-84.71,218.96l-38.82-100.33l54.43-138.23
	l-21.56-0.09l-43.59,110.61l-35.17-90.91c-1.87-0.19-3.74-0.37-5.61-0.55l-41.08-5.69c-35.62-2.87-62.67-21.38-67.23-50.11
	C-801.12,91.1-775.11,54.79-734.64,33.81z"/>
<g>
	<path class="st3" d="M-114.82-426.68l27.14,45.51l-25.84,46.26l-52.98,0.75l-27.14-45.51l25.84-46.26L-114.82-426.68
		 M-98.25-456.34l-86.95,1.23l-42.41,75.92l44.54,74.69l86.95-1.23l42.41-75.92L-98.25-456.34L-98.25-456.34z"/>
	<rect x="-63.88" y="-397.12" class="st3" width="61.52" height="26.75"/>
	<rect x="-245.77" y="-391.77" class="st3" width="42.8" height="26.75"/>
	<polygon class="st3" points="22.5,-324.83 -22.79,-380.42 -2.35,-397.12 45.8,-338.27 	"/>
	
		<rect x="-25.41" y="-301.69" transform="matrix(-0.477 0.8789 -0.8789 -0.477 -229.9211 -439.822)" class="st3" width="82.62" height="26.75"/>
	
		<rect x="-65.59" y="-271.27" transform="matrix(-1 -1.224647e-16 1.224647e-16 -1 -70.6224 -515.7893)" class="st3" width="60.57" height="26.75"/>
	<polygon class="st3" points="15.83,-267.11 48.89,-211.67 15.01,-191.46 -18.4,-247.32 	"/>
	
		<rect x="26.53" y="-341.01" transform="matrix(-1 -1.224647e-16 1.224647e-16 -1 124.7666 -655.2749)" class="st3" width="71.7" height="26.75"/>
</g>
<g>
	<path class="st3" d="M663.43-502.08c16.64,6.06,28.53,22.03,28.53,40.77c0,23.96-19.42,43.37-43.37,43.37H543.06l-9.56,48.91
		h121.97c36.87,0,66.76-29.89,66.76-66.76v0C722.23-469.97,696.55-498.14,663.43-502.08z"/>
	<path class="st3" d="M519.66-417.94H350.88c-23.96,0-43.37-19.42-43.37-43.37c0-18.74,11.88-34.7,28.53-40.77
		c-33.12,3.93-58.8,32.11-58.8,66.29v0c0,36.87,29.89,66.76,66.76,66.76H510.1L519.66-417.94z"/>
	<polygon class="st3" points="583.36,-333.04 591.52,-369.27 533.76,-369.27 526.62,-333.04 	"/>
	<polygon class="st3" points="522.67,-312.97 499.29,-194.25 464.83,-369.27 406.96,-369.27 460.32,-136.73 539.14,-136.73 
		578.84,-312.97 	"/>
</g>
<g>
	<polygon class="st2" points="2363.49,-994.91 2331.18,-1026.77 2268.63,-963.32 2206.08,-1026.77 2173.76,-994.91 2236.77,-931 
		2173.76,-867.09 2206.08,-835.23 2268.63,-898.68 2331.18,-835.23 2363.49,-867.09 2300.48,-931 	"/>
	<path class="st2" d="M2063.41-1027.89c-53.51,0-96.89,43.38-96.89,96.89c0,53.51,43.38,96.89,96.89,96.89
		c53.51,0,96.89-43.38,96.89-96.89C2160.3-984.51,2116.92-1027.89,2063.41-1027.89z M2063.36-876.44c-30.1,0-54.51-24.4-54.51-54.51
		s24.4-54.51,54.51-54.51s54.51,24.4,54.51,54.51S2093.46-876.44,2063.36-876.44z"/>
</g>
<g>
	<polygon class="st3" points="2363.49,-772.91 2331.18,-804.77 2268.63,-741.32 2206.08,-804.77 2173.76,-772.91 2236.77,-709 
		2173.76,-645.09 2206.08,-613.23 2268.63,-676.68 2331.18,-613.23 2363.49,-645.09 2300.48,-709 	"/>
	<path class="st3" d="M2063.41-805.89c-53.51,0-96.89,43.38-96.89,96.89c0,53.51,43.38,96.89,96.89,96.89
		c53.51,0,96.89-43.38,96.89-96.89C2160.3-762.51,2116.92-805.89,2063.41-805.89z M2063.36-654.44c-30.1,0-54.51-24.4-54.51-54.51
		s24.4-54.51,54.51-54.51s54.51,24.4,54.51,54.51S2093.46-654.44,2063.36-654.44z"/>
</g>
<g>
	<polygon class="st3" points="1896.99,-783.91 1864.68,-815.77 1802.13,-752.32 1739.58,-815.77 1707.26,-783.91 1770.27,-720 
		1707.26,-656.09 1739.58,-624.23 1802.13,-687.68 1864.68,-624.23 1896.99,-656.09 1833.98,-720 	"/>
	<path class="st3" d="M1596.91-816.89c-53.51,0-96.89,43.38-96.89,96.89c0,53.51,43.38,96.89,96.89,96.89s96.89-43.38,96.89-96.89
		C1693.8-773.51,1650.42-816.89,1596.91-816.89z M1596.86-665.44c-30.1,0-54.51-24.4-54.51-54.51s24.4-54.51,54.51-54.51
		c30.1,0,54.51,24.4,54.51,54.51S1626.96-665.44,1596.86-665.44z"/>
</g>
<text transform="matrix(1 0 0 1 -33.0747 851.0576)" style="font-family:'HelveticaNeue-Bold'; font-size:129.6107px;">OX</text>
<text transform="matrix(1 0 0 1 195.9253 851.0576)" style="font-family:'Helvetica-Bold'; font-size:129.6107px;">OX</text>
<text transform="matrix(1 0 0 1 -285.0747 851.0576)" style="font-family:'Futura-Bold'; font-size:129.6107px;">OX</text>
<path d="M3169.76,350.35c-0.01-7.26,1.32-14.02,3.99-20.29c2.67-6.27,6.38-11.74,11.12-16.41c4.75-4.67,10.42-8.33,17.03-10.98
	c6.61-2.64,13.88-3.97,21.83-3.98c7.86-0.01,15.12,1.3,21.78,3.92c6.66,2.63,12.39,6.27,17.19,10.93
	c4.8,4.66,8.55,10.12,11.23,16.38c2.69,6.26,4.04,13.02,4.05,20.28c0.01,7.26-1.32,14.02-3.99,20.29
	c-2.67,6.27-6.4,11.74-11.19,16.41c-4.79,4.67-10.51,8.33-17.16,10.98c-6.65,2.64-13.91,3.97-21.77,3.98
	c-7.95,0.01-15.23-1.3-21.85-3.92c-6.61-2.63-12.3-6.27-17.06-10.93c-4.76-4.66-8.48-10.12-11.17-16.38
	C3171.12,364.37,3169.77,357.61,3169.76,350.35z M3196.33,350.31c0.01,3.89,0.74,7.47,2.22,10.75c1.47,3.28,3.46,6.13,5.98,8.55
	c2.51,2.42,5.43,4.29,8.76,5.62c3.33,1.34,6.85,2,10.57,1.99c3.71-0.01,7.23-0.68,10.56-2.02c3.32-1.34,6.26-3.23,8.8-5.65
	c2.55-2.42,4.55-5.28,6.01-8.56c1.46-3.29,2.19-6.87,2.19-10.76s-0.75-7.47-2.22-10.75c-1.48-3.28-3.49-6.13-6.04-8.54
	c-2.55-2.42-5.49-4.29-8.82-5.63c-3.33-1.33-6.85-2-10.57-1.99c-3.72,0.01-7.24,0.68-10.56,2.02c-3.33,1.35-6.24,3.23-8.74,5.65
	c-2.5,2.42-4.49,5.28-5.95,8.56C3197.05,342.84,3196.32,346.43,3196.33,350.31z"/>
<path d="M3295.04,346.89l-30.53-45.58l31.37-0.05l13.26,25.26l16.3-25.3l31.36-0.05l-32.21,45.67l36.5,52.05l-30.98,0.05
	l-19.62-31.86l-22.89,31.92l-30.72,0.04L3295.04,346.89z"/>
<text transform="matrix(1 0 0 1 -290.0747 989.0576)" style="font-family:'FuturaPT-Demi'; font-size:129.6107px;">OX</text>
<text transform="matrix(1 -6.910000e-03 6.910000e-03 1 -32.7861 989.8012)" style="font-family:'Didot-Bold'; font-size:129.6107px;">OX</text>
<text transform="matrix(1 0 0 1 645.9253 1094.0576)" style="font-family:'HomepageBaukasten-Bold'; font-size:129.6107px;">OX</text>
<text transform="matrix(1 0 0 1 469.9253 1299.0576)" style="font-family:'HomepageBaukasten-Bold'; font-size:129.6107px; letter-spacing:-1;">OX</text>
<text transform="matrix(1 0 0 1 1016.9253 1318.0576)" style="font-family:'HomepageBaukasten-Bold'; font-size:129.6107px; letter-spacing:-9;">OX</text>
<g>
	<path class="st3" d="M1702.46,959.56c-50.45,0-86.66-37.61-86.66-84.09V875c0-46.48,36.67-84.56,87.13-84.56
		c50.45,0,86.66,37.61,86.66,84.09V875C1789.59,921.48,1752.92,959.56,1702.46,959.56z M1702.46,823.61
		c-28.96,0-49.05,22.89-49.05,50.92V875c0,28.03,20.55,51.39,49.52,51.39c28.96,0,49.05-22.89,49.05-50.92V875
		C1751.98,846.97,1731.43,823.61,1702.46,823.61z"/>
	<path class="st3" d="M1869.48,900.69l-36.91,56.06h-40.88l56.99-83.16l-54.66-80.35h42.04l34.34,53.02l34.57-53.02h40.88
		l-54.66,79.89l57,83.62h-42.05L1869.48,900.69z"/>
</g>
<g>
	<path d="M2294.46,959.56c-50.45,0-86.66-37.61-86.66-84.09V875c0-46.48,36.67-84.56,87.13-84.56c50.45,0,86.66,37.61,86.66,84.09
		V875C2381.59,921.48,2344.92,959.56,2294.46,959.56z M2294.46,823.61c-28.96,0-49.05,22.89-49.05,50.92V875
		c0,28.03,20.55,51.39,49.52,51.39c28.96,0,49.05-22.89,49.05-50.92V875C2343.98,846.97,2323.43,823.61,2294.46,823.61z"/>
	<path d="M2461.48,900.69l-36.91,56.06h-40.88l56.99-83.16l-54.66-80.35h42.04l34.34,53.02l34.57-53.02h40.88l-54.66,79.89l57,83.62
		h-42.05L2461.48,900.69z"/>
</g>
<text transform="matrix(1 0 0 1 511.9253 1564.0576)" style="font-family:'HomepageBaukasten-Bold'; font-size:129.6107px; letter-spacing:-3;">OX</text>
<text transform="matrix(1 0 0 1 1016.9253 1586.0576)" style="font-family:'HomepageBaukasten-Bold'; font-size:129.6107px; letter-spacing:-12;">OX</text>
<g>
	<path class="st3" d="M1688.41,1719.64c-52.41,0-90.02-39.06-90.02-87.35v-0.49c0-48.28,38.09-87.83,90.5-87.83
		c52.41,0,90.02,39.06,90.02,87.35v0.48C1778.92,1680.09,1740.82,1719.64,1688.41,1719.64z M1688.41,1578.43
		c-30.09,0-50.95,23.78-50.95,52.89v0.48c0,29.12,21.35,53.38,51.44,53.38c30.09,0,50.95-23.78,50.95-52.89v-0.49
		C1739.85,1602.69,1718.5,1578.43,1688.41,1578.43z"/>
	<path class="st3" d="M1855.83,1658.49l-38.34,58.23h-42.46l59.2-86.38l-56.78-83.47h43.67l35.67,55.08l35.91-55.08h42.46
		l-56.78,82.98l59.2,86.86h-43.68L1855.83,1658.49z"/>
</g>
<g>
	<path d="M2280.41,1719.64c-52.41,0-90.02-39.06-90.02-87.35v-0.49c0-48.28,38.09-87.83,90.5-87.83c52.41,0,90.02,39.06,90.02,87.35
		v0.48C2370.92,1680.09,2332.82,1719.64,2280.41,1719.64z M2280.41,1578.43c-30.09,0-50.95,23.78-50.95,52.89v0.48
		c0,29.12,21.35,53.38,51.44,53.38c30.09,0,50.95-23.78,50.95-52.89v-0.49C2331.85,1602.69,2310.5,1578.43,2280.41,1578.43z"/>
	<path d="M2447.83,1658.49l-38.34,58.23h-42.46l59.2-86.38l-56.78-83.47h43.67l35.67,55.08l35.91-55.08h42.46l-56.78,82.98
		l59.2,86.86h-43.68L2447.83,1658.49z"/>
</g>
<text transform="matrix(1 0 0 1 948.9253 1094.0576)" style="font-family:'HomepageBaukasten-Bold'; font-size:129.6107px; letter-spacing:-6;">OX</text>
<path class="st3" d="M258.52-718c-52.44,0-90.07-38.42-90.07-85.91v-0.48c0-47.49,38.12-86.39,90.56-86.39
	c52.44,0,90.07,38.42,90.07,85.91v0.48C349.08-756.9,310.96-718,258.52-718z M258.52-856.89c-30.1,0-50.98,23.39-50.98,52.02v0.48
	c0,28.64,21.36,52.5,51.47,52.5c30.1,0,50.98-23.39,50.98-52.02v-0.48C309.99-833.02,288.63-856.89,258.52-856.89z"/>
<path class="st3" d="M438.18-778.14l-38.36,57.27h-42.49l59.24-84.96l-56.81-82.09h43.7l35.69,54.17l35.93-54.17h42.49l-56.81,81.61
	L520-720.86h-43.7L438.18-778.14z"/>
<path class="st3" d="M1092.52,508c-52.44,0-90.07-38.42-90.07-85.91v-0.48c0-47.49,38.12-86.39,90.56-86.39
	c52.44,0,90.07,38.42,90.07,85.91v0.48C1183.08,469.1,1144.96,508,1092.52,508z M1092.52,369.11c-30.1,0-50.98,23.39-50.98,52.02
	v0.48c0,28.64,21.36,52.5,51.47,52.5c30.1,0,50.98-23.39,50.98-52.02v-0.48C1143.99,392.98,1122.63,369.11,1092.52,369.11z"/>
<path class="st3" d="M1243.18,447.86l-38.36,57.27h-42.49l59.24-84.96l-56.81-82.09h43.7l35.69,54.17l35.93-54.17h42.49
	l-56.81,81.61l59.24,85.43h-43.7L1243.18,447.86z"/>
<g>
	<path d="M2290.4,280.78c-52.37,0-89.96-39.04-89.96-87.29V193c0-48.25,38.07-87.77,90.44-87.77c52.37,0,89.96,39.04,89.96,87.29
		V193C2380.85,241.25,2342.78,280.78,2290.4,280.78z M2290.4,139.66c-30.07,0-50.92,23.76-50.92,52.86V193
		c0,29.1,21.34,53.35,51.4,53.35c30.07,0,50.92-23.76,50.92-52.86V193C2341.81,163.9,2320.47,139.66,2290.4,139.66z"/>
	<path d="M2469.84,219.67l-38.31,58.19h-42.43l59.16-86.32l-56.74-83.41h43.64l35.64,55.04l35.89-55.04h42.43l-56.74,82.93
		l59.16,86.8h-43.65L2469.84,219.67z"/>
</g>
<path class="st3" d="M859.78,731.45c-30.15-6.33-50.45-33-50.45-64.22v-0.6c0-35.8,26.1-65.05,63.74-65.05
	c25.04,0,45.23,13.21,55.95,32.59l28.7-40.31c-20.09-21.31-49.49-34.65-84.04-34.65c-65.57,0-113.23,48.63-113.23,108.01v0.6
	c0,46.46,28.8,85.97,72.74,100.97L859.78,731.45z"/>
<g>
	<polygon class="st3" points="983.93,664.85 1054.96,562.81 1005.6,562.81 856.91,771.67 907.74,771.67 955.7,700.06 
		1003.36,771.67 1058,771.67 	"/>
</g>
<rect x="1137.93" y="264.87" transform="matrix(0.8157 0.5785 -0.5785 0.8157 455.1367 -606.7316)" class="st4" width="83.51" height="291.98"/>
<g>
	<path class="st2" d="M2524.93-253.57c-4.08,1.04-8.31,1.57-12.69,1.57c-6.66,0-12.97-1.2-18.92-3.6
		c-5.96-2.4-11.18-5.76-15.67-10.1c-4.49-4.33-8.05-9.44-10.68-15.32c-2.63-5.88-3.95-12.3-3.95-19.27c0-6.97,1.31-13.39,3.95-19.27
		c2.63-5.88,6.19-10.99,10.68-15.32c4.48-4.33,9.71-7.7,15.67-10.1c5.96-2.4,12.27-3.6,18.92-3.6c6.65,0,12.96,1.2,18.92,3.6
		c5.95,2.4,11.22,5.77,15.79,10.1c4.57,4.33,8.16,9.44,10.8,15.32c1.95,4.36,3.17,9.01,3.68,13.96l32.41-46.22
		c-3.44-5.11-7.37-9.84-11.83-14.17c-8.59-8.36-18.85-14.89-30.76-19.62c-11.92-4.72-24.92-7.08-39-7.08
		c-14.24,0-27.28,2.36-39.12,7.08c-11.84,4.72-22.02,11.26-30.53,19.62c-8.51,8.36-15.17,18.15-19.97,29.37
		c-4.8,11.22-7.2,23.33-7.2,36.33c0,13,2.4,25.11,7.2,36.33c4.8,11.22,11.45,21.01,19.97,29.37c8.51,8.36,18.69,14.9,30.53,19.62
		c6.55,2.61,13.48,4.5,20.76,5.67L2524.93-253.57z"/>
	<g>
		<polygon class="st2" points="2651.33,-306.88 2709.14,-388.61 2655.43,-388.61 2624.03,-343.84 2623.71,-343.33 2623.69,-343.36 
			2598.26,-307.09 2598.4,-306.88 2591.96,-298.1 2532.66,-213.55 2584.94,-213.55 2626.03,-270.67 2661.08,-213.55 
			2716.57,-213.55 		"/>
	</g>
</g>
<path class="st2" d="M2925.87,30.93c-4.08,1.04-8.31,1.57-12.69,1.57c-6.66,0-12.97-1.2-18.92-3.6c-5.96-2.4-11.18-5.76-15.67-10.1
	c-4.49-4.33-8.05-9.44-10.68-15.32c-2.63-5.88-3.95-12.3-3.95-19.27c0-6.97,1.31-13.39,3.95-19.27c2.63-5.88,6.19-10.99,10.68-15.32
	c4.49-4.33,9.71-7.7,15.67-10.1c5.96-2.4,12.27-3.6,18.92-3.6c6.65,0,12.96,1.2,18.92,3.6c5.95,2.4,11.22,5.77,15.79,10.1
	c4.57,4.33,8.16,9.44,10.8,15.32c1.95,4.36,3.17,9.01,3.68,13.96l32.41-46.22c-3.44-5.11-7.37-9.84-11.83-14.17
	c-8.59-8.36-18.85-14.89-30.76-19.62c-11.92-4.72-24.92-7.08-39-7.08c-14.24,0-27.28,2.36-39.12,7.08
	c-11.84,4.72-22.02,11.26-30.53,19.62c-8.51,8.36-15.17,18.15-19.97,29.37c-4.8,11.22-7.2,23.33-7.2,36.33c0,13,2.4,25.11,7.2,36.33
	c4.8,11.22,11.45,21.01,19.97,29.37c8.51,8.36,18.69,14.9,30.53,19.62c6.55,2.61,13.48,4.5,20.76,5.67L2925.87,30.93z"/>
<polygon class="st2" points="3042.27,-22.38 3100.08,-104.11 3047.44,-104.11 2924.68,70.95 2975.88,70.95 3016.97,13.83 
	3052.02,70.95 3107.51,70.95 "/>
<rect x="5252.04" y="-243.64" transform="matrix(0.8187 0.5742 -0.5742 0.8187 928.1828 -3054.2488)" class="st4" width="98.36" height="373.04"/>
<g>
	<polygon class="st2" points="3916.7,-528.36 3942.66,-565.06 3919.03,-565.06 3863.9,-486.45 3886.89,-486.45 3905.34,-512.1 
		3921.08,-486.45 3946,-486.45 	"/>
	<path class="st2" d="M3868.02-503.62c-1.99-0.24-3.91-0.74-5.74-1.5c-2.6-1.08-4.87-2.58-6.81-4.5c-1.95-1.92-3.48-4.17-4.6-6.76
		c-1.12-2.59-1.67-5.41-1.63-8.46c0.03-3.05,0.64-5.85,1.82-8.42c1.18-2.56,2.76-4.78,4.75-6.66c1.99-1.88,4.29-3.32,6.91-4.35
		c2.62-1.02,5.39-1.52,8.3-1.48c2.91,0.03,5.67,0.59,8.27,1.67c2.6,1.08,4.88,2.58,6.86,4.5c1.47,1.43,2.7,3.04,3.69,4.83
		l12.4-17.68c-0.19-0.2-0.39-0.4-0.59-0.6c-3.72-3.7-8.18-6.61-13.37-8.74c-5.2-2.12-10.88-3.22-17.04-3.29
		c-6.24-0.07-11.96,0.9-17.16,2.91c-5.21,2.01-9.7,4.82-13.46,8.44c-3.77,3.62-6.73,7.87-8.89,12.76
		c-2.16,4.89-3.27,10.18-3.33,15.87s0.93,11.01,2.97,15.95c2.05,4.94,4.91,9.26,8.6,12.96c3.69,3.7,8.11,6.62,13.27,8.74
		c0.89,0.37,1.8,0.7,2.72,1L3868.02-503.62z"/>
</g>
<g>
	<polygon class="st2" points="-184.45,286.53 -133.7,213.42 -180.49,213.84 -288.26,370.42 -242.75,370.02 -206.66,318.92 
		-175.05,369.42 -125.72,368.99 	"/>
	<path class="st2" d="M-280.6,332.82c-3.41,0.89-6.95,1.36-10.61,1.39c-5.65,0.05-11.02-0.92-16.09-2.91
		c-5.08-1.99-9.54-4.81-13.38-8.46c-3.85-3.64-6.9-7.95-9.18-12.93c-2.28-4.97-3.44-10.42-3.49-16.33
		c-0.05-5.91,1.01-11.37,3.21-16.39c2.19-5.01,5.17-9.37,8.95-13.09c3.77-3.71,8.19-6.61,13.23-8.69c5.04-2.08,10.39-3.15,16.04-3.2
		c5.65-0.05,11.01,0.92,16.09,2.91c5.07,1.99,9.57,4.81,13.48,8.46c3.91,3.65,7,7.95,9.28,12.93c1.67,3.64,2.73,7.53,3.21,11.67
		l27.12-39.41c-2.94-4.28-6.29-8.23-10.08-11.86c-7.35-7.03-16.11-12.5-26.26-16.42c-10.15-3.92-21.21-5.82-33.16-5.72
		c-12.09,0.11-23.14,2.21-33.16,6.3c-10.02,4.1-18.61,9.72-25.77,16.88c-7.16,7.16-12.74,15.52-16.73,25.08
		c-3.99,9.56-5.93,19.86-5.84,30.9c0.1,11.04,2.22,21.3,6.38,30.79c4.16,9.49,9.88,17.75,17.17,24.78
		c7.29,7.03,15.98,12.51,26.06,16.42c5.55,2.16,11.4,3.7,17.56,4.64L-280.6,332.82z"/>
</g>
<g>
	<polygon class="st2" points="4064.97,-371.42 4090.32,-407.93 4066.95,-407.73 4013.11,-329.51 4035.85,-329.71 4053.87,-355.23 
		4069.66,-330.01 4094.3,-330.23 	"/>
	<path class="st2" d="M4016.94-348.29c-1.7,0.44-3.47,0.68-5.3,0.7c-2.82,0.02-5.5-0.46-8.04-1.45c-2.54-0.99-4.76-2.4-6.68-4.22
		c-1.92-1.82-3.45-3.97-4.59-6.46c-1.14-2.48-1.72-5.2-1.75-8.16s0.51-5.68,1.6-8.19c1.09-2.5,2.58-4.68,4.47-6.54
		c1.89-1.85,4.09-3.3,6.61-4.34c2.52-1.04,5.19-1.57,8.01-1.6c2.82-0.02,5.5,0.46,8.04,1.46c2.53,1,4.78,2.4,6.73,4.22
		c1.95,1.82,3.5,3.97,4.64,6.46c0.83,1.82,1.36,3.76,1.6,5.83l13.55-19.69c-1.47-2.14-3.14-4.11-5.04-5.92
		c-3.67-3.51-8.05-6.25-13.12-8.2c-5.07-1.96-10.59-2.91-16.56-2.86c-6.04,0.05-11.56,1.1-16.56,3.15c-5,2.05-9.29,4.86-12.87,8.43
		c-3.58,3.58-6.36,7.75-8.36,12.53c-1.99,4.78-2.96,9.92-2.92,15.43s1.11,10.64,3.19,15.38c2.08,4.74,4.93,8.87,8.58,12.38
		c3.64,3.51,7.98,6.25,13.02,8.2c2.77,1.08,5.7,1.85,8.77,2.32L4016.94-348.29z"/>
</g>
<g>
	<polygon class="st2" points="2155.08,-208.68 2205.84,-281.78 2159.04,-281.37 2051.27,-124.78 2096.79,-125.18 2132.87,-176.28 
		2164.48,-125.78 2213.81,-126.22 	"/>
	<path class="st2" d="M2076.93-162.38c-3.41,0.89-6.95,1.36-10.61,1.39c-5.65,0.05-11.02-0.92-16.09-2.91
		c-5.08-1.99-9.54-4.81-13.38-8.46c-3.85-3.64-6.9-7.95-9.18-12.93c-2.28-4.97-3.44-10.42-3.49-16.33
		c-0.05-5.91,1.01-11.37,3.21-16.39c2.19-5.01,5.17-9.37,8.95-13.09c3.77-3.71,8.19-6.61,13.23-8.69c5.04-2.08,10.39-3.15,16.04-3.2
		c5.65-0.05,11.01,0.92,16.09,2.91c5.07,1.99,9.57,4.81,13.48,8.46c3.91,3.65,7,7.95,9.28,12.93c1.67,3.64,2.73,7.53,3.21,11.67
		l27.12-39.41c-2.94-4.28-6.29-8.23-10.08-11.86c-7.35-7.03-16.11-12.5-26.26-16.42c-10.15-3.92-21.21-5.82-33.16-5.72
		c-12.09,0.11-23.14,2.21-33.16,6.3c-10.02,4.1-18.61,9.72-25.77,16.88c-7.16,7.16-12.74,15.52-16.73,25.08
		c-3.99,9.56-5.93,19.86-5.84,30.9c0.1,11.04,2.22,21.3,6.38,30.79c4.16,9.49,9.88,17.75,17.17,24.78
		c7.29,7.03,15.98,12.51,26.06,16.42c5.55,2.16,11.4,3.7,17.56,4.64L2076.93-162.38z"/>
	
		<rect x="2106.35" y="-311.71" transform="matrix(0.821 0.571 -0.571 0.821 245.8105 -1249.1478)" class="st1" width="17.08" height="158.25"/>
</g>
<g>
	<polygon class="st2" points="-114.36,-23.23 -59.78,-101.85 -110.1,-101.41 -197.7,25.96 -197.75,25.93 -226.01,66.99 
		-177.06,66.56 -138.25,11.61 -104.25,65.92 -51.2,65.45 	"/>
	<path class="st2" d="M-209.51,27.89c-6.08,0.05-11.85-0.99-17.3-3.13c-5.46-2.14-10.26-5.17-14.39-9.09
		c-4.14-3.92-7.42-8.55-9.87-13.9c-2.45-5.35-3.7-11.2-3.76-17.56c-0.06-6.36,1.09-12.23,3.45-17.62
		c2.35-5.39,5.56-10.08,9.63-14.07c4.06-3.99,8.8-7.11,14.22-9.35c5.42-2.24,11.17-3.38,17.25-3.44c6.07-0.05,11.84,0.99,17.3,3.13
		c5.46,2.14,10.29,5.17,14.49,9.09c1.96,1.83,3.73,3.81,5.31,5.95l24.85-36.12c-7.57-6.85-16.45-12.24-26.64-16.17
		c-10.92-4.21-22.81-6.26-35.66-6.15c-13,0.11-24.89,2.38-35.66,6.78c-10.77,4.41-20.01,10.46-27.71,18.16
		c-7.7,7.7-13.7,16.69-17.99,26.97c-4.29,10.28-6.38,21.36-6.28,33.23c0.1,11.87,2.39,22.91,6.86,33.11
		c4.47,10.21,10.62,19.09,18.46,26.65c7.84,7.56,17.18,13.45,28.03,17.66c5.97,2.32,12.26,3.98,18.88,4.99l27.95-40.6
		C-201.76,27.35-205.56,27.86-209.51,27.89z"/>
</g>
<path class="st2" d="M341.85-174.24c1.42,0,2.83,0.05,4.22,0.16c8.01,0.61,14.91-5.56,14.91-13.59v0c0-7.14-5.5-13.05-12.62-13.62
	c-2.14-0.17-4.31-0.26-6.5-0.26c-24.53,0-46.26,10.87-59.55,27.5c-13.29-16.63-35.02-27.5-59.55-27.5
	c-40.37,0-73.21,29.41-73.21,65.56s32.84,65.56,73.21,65.56c24.53,0,46.26-10.87,59.55-27.5c13.29,16.63,35.02,27.5,59.55,27.5
	c2.19,0,4.36-0.09,6.5-0.26c7.12-0.57,12.62-6.48,12.62-13.62v0c0-8.04-6.89-14.21-14.91-13.59c-1.39,0.11-2.79,0.16-4.22,0.16
	c-25.3,0-45.89-17.16-45.89-38.24S316.55-174.24,341.85-174.24z M222.75-97.76c-25.3,0-45.89-17.16-45.89-38.24
	s20.59-38.24,45.89-38.24s45.89,17.16,45.89,38.24S248.06-97.76,222.75-97.76z"/>
<g>
	<g>
		<g class="st5">
			<g class="st5">
				<defs>
					<path id="SVGID_1_" class="st5" d="M610.25,617.99l22.79,12.4c-1.92-1.05-4.21-1.48-6.64-1.14l-22.79-12.4
						C606.04,616.51,608.33,616.94,610.25,617.99z"/>
				</defs>
				<clipPath id="SVGID_2_">
					<use xlink:href="#SVGID_1_"  style="overflow:visible;"/>
				</clipPath>
				<g class="st6">
					<path class="st7" d="M626.4,629.25l-22.79-12.4c1.51-0.21,2.96-0.13,4.31,0.22l22.79,12.4
						C629.36,629.12,627.91,629.04,626.4,629.25"/>
					<path class="st8" d="M630.7,629.47l-22.79-12.4c0.68,0.18,1.34,0.42,1.96,0.73l22.79,12.4
						C632.05,629.89,631.39,629.64,630.7,629.47"/>
					<path class="st9" d="M632.67,630.19l-22.79-12.4c0.13,0.06,0.25,0.13,0.37,0.19l22.79,12.4
						C632.92,630.32,632.79,630.26,632.67,630.19"/>
				</g>
			</g>
			<g class="st5">
				<defs>
					<path id="SVGID_3_" class="st5" d="M597,626.09l-22.79-12.4c6.85,3.73,15.4,5.31,24.66,4.01c1.27-0.18,2.52-0.41,3.75-0.67
						c0.33-0.07,0.66-0.13,0.99-0.18l22.79,12.4c-0.33,0.05-0.66,0.11-0.99,0.18c-1.23,0.27-2.48,0.5-3.75,0.67
						C612.4,631.4,603.85,629.82,597,626.09z"/>
				</defs>
				<clipPath id="SVGID_4_">
					<use xlink:href="#SVGID_3_"  style="overflow:visible;"/>
				</clipPath>
				<g class="st10">
					<path class="st9" d="M597,626.09l-22.79-12.4c0.42,0.23,0.84,0.45,1.27,0.66l22.79,12.4
						C597.84,626.54,597.42,626.32,597,626.09"/>
					<path class="st8" d="M598.27,626.75l-22.79-12.4c2.16,1.06,4.47,1.91,6.9,2.54l22.79,12.4
						C602.73,628.66,600.42,627.81,598.27,626.75"/>
					<path class="st7" d="M605.17,629.29l-22.79-12.4c5.04,1.3,10.63,1.64,16.49,0.81c1.27-0.18,2.52-0.41,3.75-0.67
						c0.33-0.07,0.66-0.13,0.99-0.18l22.79,12.4c-0.33,0.05-0.66,0.11-0.99,0.18c-1.23,0.27-2.48,0.5-3.75,0.67
						C615.79,630.93,610.21,630.59,605.17,629.29"/>
				</g>
			</g>
			<g class="st5">
				<defs>
					<path id="SVGID_5_" class="st5" d="M584.12,650.1l-22.79-12.4c-5.98-3.25-11.21-7.56-15.47-12.72l22.79,12.4
						C572.91,642.54,578.14,646.84,584.12,650.1z"/>
				</defs>
				<clipPath id="SVGID_6_">
					<use xlink:href="#SVGID_5_"  style="overflow:visible;"/>
				</clipPath>
				<g class="st11">
					<path class="st12" d="M584.12,650.1l-22.79-12.4c-5.98-3.25-11.21-7.56-15.47-12.72l22.79,12.4
						C572.91,642.54,578.14,646.84,584.12,650.1"/>
				</g>
			</g>
			<g class="st5">
				<defs>
					<path id="SVGID_7_" class="st5" d="M610.41,518.65l22.79,12.4c-1.63-0.89-3.53-1.33-5.57-1.22c-1.91,0.1-3.84,0.29-5.78,0.56
						c-21.83,3.07-41.19,16.22-53.05,33.86L546,551.85c11.86-17.64,31.23-30.79,53.05-33.86c1.95-0.27,3.88-0.46,5.78-0.56
						C606.88,517.32,608.78,517.76,610.41,518.65z"/>
				</defs>
				<clipPath id="SVGID_8_">
					<use xlink:href="#SVGID_7_"  style="overflow:visible;"/>
				</clipPath>
				<g class="st13">
					<path class="st14" d="M568.79,564.25L546,551.85c0.29-0.43,0.58-0.85,0.87-1.27l22.79,12.4
						C569.37,563.4,569.08,563.83,568.79,564.25"/>
					<path class="st15" d="M569.66,562.98l-22.79-12.4c1.69-2.41,3.52-4.73,5.48-6.94l22.79,12.4
						C573.18,558.26,571.35,560.58,569.66,562.98"/>
					<path class="st16" d="M575.14,556.04l-22.79-12.4c2.03-2.29,4.19-4.48,6.47-6.54l22.79,12.4
						C579.33,551.56,577.16,553.75,575.14,556.04"/>
					<path class="st9" d="M581.61,549.51l-22.79-12.4c2.54-2.28,5.22-4.41,8.04-6.36l22.79,12.4
						C586.84,545.1,584.15,547.22,581.61,549.51"/>
					<path class="st8" d="M589.65,543.15l-22.79-12.4c3.53-2.44,7.26-4.6,11.15-6.43l22.79,12.4
						C596.91,538.55,593.18,540.71,589.65,543.15"/>
					<path class="st7" d="M600.81,536.71l-22.79-12.4c6.6-3.11,13.68-5.29,21.04-6.32c1.95-0.27,3.88-0.46,5.78-0.56
						c1.14-0.06,2.24,0.05,3.27,0.31l22.79,12.4c-1.03-0.27-2.13-0.38-3.27-0.31c-1.91,0.1-3.84,0.29-5.78,0.56
						C614.49,531.42,607.41,533.6,600.81,536.71"/>
					<path class="st8" d="M630.9,530.14l-22.79-12.4c0.68,0.17,1.33,0.42,1.94,0.72l22.79,12.4
						C632.23,530.56,631.58,530.32,630.9,530.14"/>
					<path class="st9" d="M632.84,530.86l-22.79-12.4c0.12,0.06,0.24,0.12,0.36,0.19l22.79,12.4
						C633.08,530.98,632.96,530.92,632.84,530.86"/>
				</g>
			</g>
			<g class="st5">
				<defs>
					<path id="SVGID_9_" class="st5" d="M517.66,563.14l22.79,12.4c9.81,5.34,16.14,15.06,16.12,26.99
						c-0.04,20.26-18.4,39.31-40.91,42.48l-22.79-12.4c22.52-3.16,40.88-22.22,40.91-42.48C533.8,578.2,527.47,568.47,517.66,563.14
						z"/>
				</defs>
				<clipPath id="SVGID_10_">
					<use xlink:href="#SVGID_9_"  style="overflow:visible;"/>
				</clipPath>
				<g class="st17">
					<path class="st7" d="M515.66,645l-22.79-12.4c4.92-0.69,9.64-2.14,14.02-4.2l22.79,12.4C525.3,642.86,520.58,644.31,515.66,645
						"/>
					<path class="st8" d="M529.68,640.8l-22.79-12.4c2.56-1.2,4.99-2.61,7.28-4.19l22.79,12.4
						C534.67,638.19,532.24,639.6,529.68,640.8"/>
					<path class="st9" d="M536.96,636.61l-22.79-12.4c1.78-1.23,3.47-2.56,5.05-3.99l22.79,12.4
						C540.43,634.04,538.74,635.38,536.96,636.61"/>
					<path class="st16" d="M542.01,632.62l-22.79-12.4c1.4-1.26,2.71-2.59,3.94-3.98l22.79,12.4
						C544.73,630.03,543.41,631.36,542.01,632.62"/>
					<path class="st15" d="M545.96,628.64l-22.79-12.4c1.16-1.32,2.25-2.69,3.25-4.11l22.79,12.4
						C548.21,625.95,547.12,627.32,545.96,628.64"/>
					<path class="st14" d="M549.2,624.53l-22.79-12.4c1-1.43,1.92-2.91,2.73-4.43l22.79,12.4
						C551.12,621.62,550.21,623.1,549.2,624.53"/>
					<path class="st18" d="M551.94,620.1l-22.79-12.4c0.92-1.71,1.72-3.48,2.38-5.28l22.79,12.4
						C553.66,616.63,552.86,618.39,551.94,620.1"/>
					<path class="st12" d="M554.32,614.82l-22.79-12.4c1.45-3.96,2.25-8.11,2.26-12.3c0.02-11.93-6.31-21.65-16.12-26.99l22.79,12.4
						c9.81,5.34,16.14,15.06,16.12,26.99C556.56,606.72,555.77,610.86,554.32,614.82"/>
				</g>
			</g>
			<g class="st5">
				<defs>
					<path id="SVGID_11_" class="st5" d="M490.99,640.99l-22.79-12.4c6.85,3.73,15.4,5.31,24.67,4.01l22.79,12.4
						C506.39,646.3,497.84,644.72,490.99,640.99z"/>
				</defs>
				<clipPath id="SVGID_12_">
					<use xlink:href="#SVGID_11_"  style="overflow:visible;"/>
				</clipPath>
				<g class="st19">
					<path class="st9" d="M490.99,640.99l-22.79-12.4c0.42,0.23,0.84,0.45,1.27,0.66l22.79,12.4
						C491.83,641.43,491.41,641.22,490.99,640.99"/>
					<path class="st8" d="M492.26,641.64l-22.79-12.4c2.16,1.06,4.47,1.91,6.9,2.54l22.79,12.4
						C496.73,643.56,494.42,642.7,492.26,641.64"/>
					<path class="st7" d="M499.16,644.19l-22.79-12.4c5.05,1.3,10.63,1.64,16.5,0.81l22.79,12.4
						C509.79,645.82,504.21,645.49,499.16,644.19"/>
				</g>
			</g>
			<g class="st5">
				<defs>
					<path id="SVGID_13_" class="st5" d="M478.08,664.99l-22.79-12.4c-16.67-9.07-27.56-26.34-27.52-47.57
						c0.06-34.72,29.35-67.08,65.28-72.14c13.96-1.96,26.89,0.49,37.49,6.25l22.79,12.4c-10.6-5.76-23.53-8.21-37.49-6.25
						c-35.93,5.05-65.22,37.41-65.28,72.14C450.52,638.65,461.41,655.92,478.08,664.99z"/>
				</defs>
				<clipPath id="SVGID_14_">
					<use xlink:href="#SVGID_13_"  style="overflow:visible;"/>
				</clipPath>
				<g class="st20">
					<path class="st12" d="M478.08,664.99l-22.79-12.4c-16.67-9.07-27.56-26.34-27.52-47.57c0.01-7.68,1.46-15.24,4.08-22.42
						l22.79,12.4c-2.63,7.18-4.07,14.74-4.08,22.42C450.52,638.65,461.41,655.92,478.08,664.99"/>
					<path class="st18" d="M454.65,595.01l-22.79-12.4c1.18-3.22,2.6-6.37,4.23-9.41l22.79,12.4
						C457.24,588.64,455.83,591.78,454.65,595.01"/>
					<path class="st14" d="M458.88,585.6l-22.79-12.4c1.43-2.66,3.02-5.23,4.76-7.72l22.79,12.4
						C461.9,580.37,460.3,582.94,458.88,585.6"/>
					<path class="st15" d="M463.64,577.88l-22.79-12.4c1.69-2.4,3.51-4.72,5.47-6.94l22.79,12.4
						C467.15,573.16,465.33,575.48,463.64,577.88"/>
					<path class="st16" d="M469.11,570.95l-22.79-12.4c2.03-2.3,4.2-4.49,6.49-6.55l22.79,12.4
						C473.31,566.46,471.14,568.65,469.11,570.95"/>
					<path class="st9" d="M475.6,564.4L452.81,552c2.54-2.29,5.23-4.42,8.06-6.37l22.79,12.4
						C480.83,559.98,478.14,562.11,475.6,564.4"/>
					<path class="st8" d="M483.66,558.03l-22.79-12.4c3.52-2.43,7.24-4.58,11.13-6.42l22.79,12.4
						C490.9,553.45,487.18,555.6,483.66,558.03"/>
					<path class="st7" d="M494.79,551.62L472,539.22c6.61-3.11,13.69-5.29,21.05-6.33c8.78-1.23,17.15-0.72,24.79,1.26l22.79,12.4
						c-7.64-1.98-16.01-2.49-24.79-1.26C508.48,546.32,501.4,548.5,494.79,551.62"/>
					<path class="st8" d="M540.64,546.55l-22.79-12.4c3.76,0.98,7.35,2.31,10.72,3.97l22.79,12.4
						C547.99,548.86,544.4,547.52,540.64,546.55"/>
					<path class="st9" d="M551.36,550.52l-22.79-12.4c0.67,0.33,1.32,0.67,1.97,1.02l22.79,12.4
						C552.68,551.19,552.02,550.84,551.36,550.52"/>
				</g>
			</g>
			<g>
				<path class="st21" d="M626.4,629.25c6.71-0.94,12.27,4.01,12.26,11.37c-0.01,6.86-4.93,13.23-11.26,14.67
					c-1.91,0.43-3.84,0.79-5.78,1.06c-21.83,3.07-41.15-4.66-52.96-18.97c-11.86,17.64-31.22,30.8-53.05,33.87
					c-35.93,5.05-65.11-19.1-65.05-53.83c0.06-34.72,29.35-67.08,65.28-72.14c21.83-3.07,41.15,4.65,52.95,18.97
					c11.86-17.64,31.23-30.79,53.05-33.86c1.95-0.27,3.88-0.46,5.78-0.56c6.34-0.35,11.23,4.65,11.21,11.5
					c-0.01,7.37-5.61,13.89-12.32,14.83c-0.32,0.05-0.65,0.08-0.98,0.1c-1.23,0.07-2.48,0.19-3.75,0.37
					c-22.53,3.17-40.88,22.22-40.91,42.48c-0.04,20.26,18.25,34.16,40.78,31c1.27-0.18,2.52-0.41,3.75-0.67
					C625.74,629.35,626.07,629.29,626.4,629.25z M515.66,645c22.52-3.16,40.88-22.22,40.91-42.48c0.04-20.26-18.26-34.16-40.78-31
					c-22.53,3.17-40.88,22.22-40.92,42.48C474.84,634.26,493.13,648.17,515.66,645"/>
			</g>
		</g>
	</g>
</g>
<path class="st2" d="M148.71,598.33c1.24,0,2.46,0.05,3.67,0.16c6.97,0.61,12.97-5.56,12.97-13.59v0c0-7.14-4.79-13.05-10.98-13.62
	c-1.86-0.17-3.75-0.26-5.66-0.26c-21.34,0-40.25,10.87-51.82,27.5c-11.57-16.63-30.48-27.5-51.82-27.5
	c-35.13,0-63.7,29.41-63.7,65.56c0,36.15,28.58,65.56,63.7,65.56c21.34,0,40.25-10.87,51.82-27.5c11.57,16.63,30.48,27.5,51.82,27.5
	c1.91,0,3.79-0.09,5.66-0.26c6.19-0.57,10.98-6.48,10.98-13.62v0c0-8.04-6-14.21-12.97-13.59c-1.21,0.11-2.43,0.16-3.67,0.16
	c-22.02,0-39.93-17.16-39.93-38.24C108.78,615.49,126.69,598.33,148.71,598.33z M45.08,674.82c-22.02,0-39.93-17.16-39.93-38.24
	s17.91-38.24,39.93-38.24s39.93,17.16,39.93,38.24C85.01,657.66,67.1,674.82,45.08,674.82z"/>
<g>
	<g>
		<g class="st5">
			<g class="st5">
				<defs>
					<path id="SVGID_15_" class="st5" d="M-141.7,619.84l22.79,12.4c-1.55-0.84-3.33-1.19-5.22-0.93l-22.79-12.4
						C-145.04,618.65-143.25,619-141.7,619.84z"/>
				</defs>
				<clipPath id="SVGID_16_">
					<use xlink:href="#SVGID_15_"  style="overflow:visible;"/>
				</clipPath>
				<g class="st22">
					<path class="st7" d="M-124.13,631.31l-22.79-12.4c1.16-0.16,2.28-0.09,3.33,0.18l22.79,12.4
						C-121.85,631.22-122.97,631.15-124.13,631.31"/>
					<path class="st8" d="M-120.8,631.49l-22.79-12.4c0.55,0.14,1.08,0.34,1.58,0.59l22.79,12.4
						C-119.73,631.83-120.26,631.63-120.8,631.49"/>
					<path class="st9" d="M-119.22,632.08l-22.79-12.4c0.1,0.05,0.21,0.1,0.31,0.16l22.79,12.4
						C-119.01,632.18-119.12,632.13-119.22,632.08"/>
				</g>
			</g>
			<g class="st5">
				<defs>
					<path id="SVGID_17_" class="st5" d="M-147.79,628.76l-22.79-12.4c5.61,3.05,12.33,4.34,19.55,3.33
						c1.11-0.16,2.2-0.36,3.27-0.62c0.28-0.07,0.57-0.12,0.85-0.16l22.79,12.4c-0.28,0.04-0.56,0.09-0.85,0.16
						c-1.07,0.25-2.16,0.46-3.27,0.62C-135.47,633.1-142.19,631.81-147.79,628.76z"/>
				</defs>
				<clipPath id="SVGID_18_">
					<use xlink:href="#SVGID_17_"  style="overflow:visible;"/>
				</clipPath>
				<g class="st23">
					<path class="st9" d="M-147.79,628.76l-22.79-12.4c0.36,0.19,0.72,0.38,1.08,0.56l22.79,12.4
						C-147.08,629.14-147.44,628.95-147.79,628.76"/>
					<path class="st8" d="M-146.71,629.32l-22.79-12.4c1.82,0.89,3.74,1.61,5.75,2.12l22.79,12.4
						C-142.98,630.92-144.9,630.21-146.71,629.32"/>
					<path class="st7" d="M-140.97,631.44l-22.79-12.4c3.95,1.02,8.24,1.28,12.72,0.65c1.11-0.16,2.2-0.36,3.27-0.62
						c0.28-0.07,0.57-0.12,0.85-0.16l22.79,12.4c-0.28,0.04-0.56,0.09-0.85,0.16c-1.07,0.25-2.16,0.46-3.27,0.62
						C-132.73,632.71-137.02,632.46-140.97,631.44"/>
				</g>
			</g>
			<g class="st5">
				<defs>
					<path id="SVGID_19_" class="st5" d="M-157.89,653.19l-22.79-12.4c-6.47-3.52-12.07-8.56-16.48-14.79l22.79,12.4
						C-169.96,644.63-164.35,649.67-157.89,653.19z"/>
				</defs>
				<clipPath id="SVGID_20_">
					<use xlink:href="#SVGID_19_"  style="overflow:visible;"/>
				</clipPath>
				<g class="st24">
					<path class="st12" d="M-157.89,653.19l-22.79-12.4c-6.47-3.52-12.07-8.56-16.48-14.79l22.79,12.4
						C-169.96,644.63-164.35,649.67-157.89,653.19"/>
				</g>
			</g>
			<g class="st5">
				<defs>
					<path id="SVGID_21_" class="st5" d="M-141.53,520.5l22.79,12.4c-1.28-0.7-2.74-1.06-4.29-0.99c-1.66,0.07-3.34,0.22-5.04,0.46
						c-18.99,2.67-35.84,15.48-46.17,32.9l-22.79-12.4c10.32-17.42,27.17-30.23,46.17-32.9c1.7-0.24,3.38-0.39,5.04-0.46
						C-144.27,519.44-142.81,519.8-141.53,520.5z"/>
				</defs>
				<clipPath id="SVGID_22_">
					<use xlink:href="#SVGID_21_"  style="overflow:visible;"/>
				</clipPath>
				<g class="st25">
					<path class="st14" d="M-174.23,565.27l-22.79-12.4c1.01-1.7,2.08-3.36,3.2-4.96l22.79,12.4
						C-172.15,561.91-173.22,563.57-174.23,565.27"/>
					<path class="st15" d="M-171.02,560.3l-22.79-12.4c1.62-2.31,3.35-4.51,5.2-6.6l22.79,12.4
						C-167.67,555.79-169.41,558-171.02,560.3"/>
					<path class="st16" d="M-165.82,553.71l-22.79-12.4c1.84-2.08,3.78-4.05,5.82-5.88l22.79,12.4
						C-162.04,549.66-163.99,551.62-165.82,553.71"/>
					<path class="st9" d="M-160,547.82l-22.79-12.4c2.17-1.96,4.46-3.77,6.83-5.41l22.79,12.4
						C-155.55,544.06-157.83,545.87-160,547.82"/>
					<path class="st8" d="M-153.17,542.42l-22.79-12.4c2.86-1.98,5.86-3.72,8.96-5.18l22.79,12.4
						C-147.32,538.7-150.31,540.44-153.17,542.42"/>
					<path class="st7" d="M-144.21,537.24l-22.79-12.4c5.12-2.41,10.54-4.09,16.15-4.87c1.7-0.24,3.38-0.39,5.04-0.46
						c0.84-0.03,1.65,0.06,2.42,0.26l22.79,12.4c-0.77-0.2-1.58-0.29-2.42-0.26c-1.66,0.07-3.34,0.22-5.04,0.46
						C-133.67,533.15-139.09,534.82-144.21,537.24"/>
					<path class="st8" d="M-120.6,532.16l-22.79-12.4c0.54,0.14,1.06,0.33,1.56,0.58l22.79,12.4
						C-119.54,532.5-120.06,532.3-120.6,532.16"/>
					<path class="st9" d="M-119.04,532.74l-22.79-12.4c0.1,0.05,0.21,0.1,0.31,0.16l22.79,12.4
						C-118.84,532.84-118.94,532.79-119.04,532.74"/>
				</g>
			</g>
			<g class="st5">
				<defs>
					<path id="SVGID_23_" class="st5" d="M-223.59,562.5l22.79,12.4c9.61,5.23,15.95,15.62,15.92,28.41
						c-0.04,20.26-16.01,38.98-35.61,41.73l-22.79-12.4c19.6-2.75,35.57-21.47,35.61-41.73
						C-207.65,578.12-213.98,567.73-223.59,562.5z"/>
				</defs>
				<clipPath id="SVGID_24_">
					<use xlink:href="#SVGID_23_"  style="overflow:visible;"/>
				</clipPath>
				<g class="st26">
					<path class="st7" d="M-220.49,645.05l-22.79-12.4c3.76-0.53,7.39-1.65,10.8-3.25l22.79,12.4
						C-213.09,643.4-216.72,644.52-220.49,645.05"/>
					<path class="st8" d="M-209.69,641.8l-22.79-12.4c2.05-0.96,4.02-2.1,5.89-3.4l22.79,12.4
						C-205.67,639.7-207.64,640.84-209.69,641.8"/>
					<path class="st9" d="M-203.8,638.4l-22.79-12.4c1.52-1.05,2.97-2.2,4.35-3.44l22.79,12.4
						C-200.82,636.2-202.28,637.35-203.8,638.4"/>
					<path class="st16" d="M-199.44,634.96l-22.79-12.4c1.26-1.14,2.46-2.35,3.59-3.63l22.79,12.4
						C-196.98,632.61-198.18,633.82-199.44,634.96"/>
					<path class="st15" d="M-195.85,631.33l-22.79-12.4c1.11-1.26,2.16-2.59,3.13-3.97l22.79,12.4
						C-193.69,628.74-194.74,630.07-195.85,631.33"/>
					<path class="st14" d="M-192.72,627.36l-22.79-12.4c1.02-1.45,1.95-2.96,2.78-4.52l22.79,12.4
						C-190.78,624.4-191.71,625.91-192.72,627.36"/>
					<path class="st18" d="M-189.94,622.84l-22.79-12.4c0.98-1.82,1.83-3.71,2.54-5.65l22.79,12.4
						C-188.11,619.13-188.96,621.02-189.94,622.84"/>
					<path class="st12" d="M-187.4,617.19l-22.79-12.4c1.62-4.41,2.51-9.1,2.52-13.87c0.02-12.79-6.31-23.19-15.92-28.41l22.79,12.4
						c9.61,5.23,15.95,15.62,15.92,28.41C-184.88,608.09-185.78,612.78-187.4,617.19"/>
				</g>
			</g>
			<g class="st5">
				<defs>
					<path id="SVGID_25_" class="st5" d="M-240.03,641.72l-22.79-12.4c5.61,3.05,12.33,4.34,19.55,3.33l22.79,12.4
						C-227.71,646.06-234.43,644.77-240.03,641.72z"/>
				</defs>
				<clipPath id="SVGID_26_">
					<use xlink:href="#SVGID_25_"  style="overflow:visible;"/>
				</clipPath>
				<g class="st27">
					<path class="st9" d="M-240.03,641.72l-22.79-12.4c0.36,0.19,0.72,0.38,1.08,0.56l22.79,12.4
						C-239.32,642.1-239.68,641.91-240.03,641.72"/>
					<path class="st8" d="M-238.95,642.28l-22.79-12.4c1.82,0.89,3.74,1.61,5.75,2.12l22.79,12.4
						C-235.22,643.88-237.14,643.17-238.95,642.28"/>
					<path class="st7" d="M-233.21,644.4L-256,632c3.95,1.02,8.24,1.28,12.72,0.65l22.79,12.4
						C-224.97,645.68-229.26,645.42-233.21,644.4"/>
				</g>
			</g>
			<g class="st5">
				<defs>
					<path id="SVGID_27_" class="st5" d="M-250.15,666.15l-22.79-12.4c-16.2-8.81-27.01-27.2-26.96-49.87
						c0.06-34.73,25.56-66.56,56.81-70.95c10.85-1.52,20.98,0.45,29.59,5.14l22.79,12.4c-8.61-4.68-18.74-6.66-29.59-5.14
						c-31.26,4.39-56.75,36.22-56.81,70.95C-277.16,638.95-266.35,657.33-250.15,666.15z"/>
				</defs>
				<clipPath id="SVGID_28_">
					<use xlink:href="#SVGID_27_"  style="overflow:visible;"/>
				</clipPath>
				<g class="st28">
					<path class="st12" d="M-250.15,666.15l-22.79-12.4c-16.2-8.81-27.01-27.2-26.96-49.87c0.02-8.77,1.65-17.35,4.59-25.35
						l22.79,12.4c-2.94,8-4.58,16.59-4.59,25.35C-277.16,638.95-266.35,657.33-250.15,666.15"/>
					<path class="st18" d="M-272.52,590.93l-22.79-12.4c1.26-3.42,2.75-6.73,4.46-9.9l22.79,12.4
						C-269.77,584.2-271.27,587.51-272.52,590.93"/>
					<path class="st14" d="M-268.07,581.02l-22.79-12.4c1.44-2.69,3.04-5.28,4.78-7.75l22.79,12.4
						C-265.02,575.74-266.62,578.33-268.07,581.02"/>
					<path class="st15" d="M-263.29,573.27l-22.79-12.4c1.62-2.3,3.35-4.5,5.19-6.59l22.79,12.4
						C-259.94,568.77-261.67,570.97-263.29,573.27"/>
					<path class="st16" d="M-258.1,566.68l-22.79-12.4c1.84-2.08,3.79-4.05,5.83-5.89l22.79,12.4
						C-254.31,562.63-256.26,564.6-258.1,566.68"/>
					<path class="st9" d="M-252.27,560.79l-22.79-12.4c2.18-1.96,4.46-3.77,6.84-5.41l22.79,12.4
						C-247.81,557.02-250.09,558.83-252.27,560.79"/>
					<path class="st8" d="M-245.43,555.38l-22.79-12.4c2.89-2,5.91-3.74,9.05-5.22l22.79,12.4
						C-239.52,551.64-242.54,553.39-245.43,555.38"/>
					<path class="st7" d="M-236.38,550.16l-22.79-12.4c5.1-2.39,10.5-4.05,16.08-4.84c6.71-0.94,13.15-0.55,19.12,1l22.79,12.4
						c-5.97-1.55-12.41-1.95-19.12-1C-225.88,546.11-231.28,547.77-236.38,550.16"/>
					<path class="st8" d="M-201.18,546.33l-22.79-12.4c3.06,0.79,5.99,1.89,8.78,3.26l22.79,12.4
						C-195.19,548.22-198.12,547.12-201.18,546.33"/>
					<path class="st9" d="M-192.4,549.59l-22.79-12.4c0.57,0.28,1.14,0.57,1.69,0.88l22.79,12.4
						C-191.27,550.16-191.83,549.87-192.4,549.59"/>
				</g>
			</g>
			<g>
				<path class="st21" d="M-124.13,631.31c5.83-0.82,10.69,4.23,10.67,11.6c-0.01,6.86-4.28,13.14-9.8,14.45
					c-1.66,0.4-3.34,0.72-5.04,0.96c-18.99,2.67-35.8-5.4-46.07-19.93c-10.32,17.42-27.17,30.22-46.17,32.9
					c-31.26,4.39-56.65-20.29-56.58-55.01c0.06-34.73,25.56-66.56,56.81-70.95c19-2.67,35.81,5.41,46.07,19.94
					c10.32-17.42,27.17-30.23,46.17-32.9c1.7-0.24,3.38-0.39,5.04-0.46c5.51-0.22,9.76,4.85,9.75,11.72
					c-0.01,7.36-4.88,13.78-10.71,14.6c-0.28,0.04-0.57,0.07-0.86,0.08c-1.07,0.06-2.16,0.16-3.27,0.31
					c-19.59,2.75-35.57,21.47-35.61,41.73s15.88,34.49,35.47,31.74c1.11-0.16,2.2-0.36,3.27-0.62
					C-124.69,631.4-124.41,631.35-124.13,631.31z M-220.49,645.05c19.6-2.75,35.57-21.47,35.61-41.73s-15.87-34.5-35.47-31.74
					c-19.59,2.75-35.57,21.47-35.61,41.73C-256,633.56-240.08,647.8-220.49,645.05"/>
			</g>
		</g>
	</g>
</g>
<g>
	<path d="M433.03,258.78l0.23-29.15l-55.62-0.45l-44.81-55.68l-66.02-0.53l-37.98-64.86l-94.78,0.58l-39.12,68.73l-27.43-0.22
		l-0.23,29.15l29,0.23l38.8,66.26l94.78-0.58l39.92-70.12l36.61,0.29l45.48,36.98l-35.68,65.28l-45.6-0.36l-0.23,29.15l36.81,0.29
		l34.12,58.1l37.11-21.73l-33.43-57.09l30.29-54.75L433.03,258.78z M211.12,240.32l-57.75,0.35l-29.18-49.83l28.57-50.19l57.75-0.35
		l29.18,49.83L211.12,240.32z"/>
</g>
</svg>
