<?xml version="1.0" encoding="utf-8"?>
<!-- Generator: Adobe Illustrator 24.2.1, SVG Export Plug-In . SVG Version: 6.00 Build 0)  -->
<svg version="1.1" xmlns="http://www.w3.org/2000/svg" xmlns:xlink="http://www.w3.org/1999/xlink" x="0px" y="0px"
	 viewBox="0 0 100.24 48.5" style="enable-background:new 0 0 100.24 48.5;" xml:space="preserve">
<style type="text/css">
	.st0{fill:#FAF9F6;}
	.st1{fill:#3A5F3E;}
	.st2{fill:#3A5F3E;stroke:#FFFFFF;stroke-width:8.5039;stroke-miterlimit:10;}
	.st3{fill:#261F1C;}
	.st4{fill:#FFFFFF;}
	.st5{fill:#C53B2D;}
	.st6{fill:none;stroke:#3A5F3E;stroke-width:2.8346;stroke-miterlimit:10;}
	.st7{fill:none;stroke:#FF0000;stroke-miterlimit:10;}
	.st8{fill:none;stroke:#FF0000;stroke-miterlimit:10;stroke-dasharray:11.9893,11.9893;}
	.st9{fill:none;stroke:#C53B2D;stroke-width:2.8346;stroke-miterlimit:10;}
	.st10{fill:none;stroke:#3A5F3E;stroke-width:3.4016;stroke-miterlimit:10;}
	.st11{fill:none;stroke:#FF0000;stroke-miterlimit:10;stroke-dasharray:11.6938,11.6938;}
	.st12{fill:none;stroke:#C53B2D;stroke-width:2.4341;stroke-miterlimit:10;}
	.st13{fill:none;stroke:#FFFFFF;stroke-width:5.684;stroke-miterlimit:10;}
	.st14{fill:none;stroke:#FFFFFF;stroke-width:4.3765;stroke-miterlimit:10;}
	.st15{fill:none;stroke:#C53B2D;stroke-width:2.1826;stroke-miterlimit:10;}
	.st16{fill:none;stroke:#261F1C;stroke-width:2.842;stroke-miterlimit:10;}
	.st17{fill:none;stroke:#261F1C;stroke-width:2.7435;stroke-miterlimit:10;}
	.st18{fill:none;stroke:#3A5F3E;stroke-width:9.0371;stroke-miterlimit:10;}
	.st19{fill:none;stroke:#3A5F3E;stroke-width:5.214;stroke-miterlimit:10;}
	.st20{fill:none;stroke:#261F1C;stroke-miterlimit:10;}
	.st21{fill:#979797;}
</style>
<g id="レイヤー_2">
</g>
<g id="レイヤー_1">
	<g>
		<g>
			<g>
				<path class="st1" d="M90.7,8c0-5.15-1.23-8-2.07-8C75.43,0,66.98,6.96,60.14,13.68c0.34,0.35,0.67,0.72,1.01,1.07
					c0.28,0.3,0.56,0.6,0.84,0.9c0.45,0.49,0.9,0.98,1.34,1.48c0.25,0.28,0.51,0.56,0.76,0.84c0.48,0.54,0.96,1.09,1.43,1.63
					c0.21,0.24,0.42,0.48,0.63,0.72c0.67,0.77,1.33,1.54,1.99,2.3c0.63,0.73,1.26,1.45,1.89,2.17c5.25-4.64,11.15-8.8,18.59-8.8
					C89.47,15.99,90.7,13.14,90.7,8z"/>
				<path class="st1" d="M29.96,0C10.29,0,0,12.51,0,24.87c0,6.24,2.59,12.01,7.3,16.23c5.38,4.84,13.21,7.39,22.65,7.39
					c13.5,0,24.83-9.17,34.14-18.14l0.57-0.55l0.57,0.55c8.83,8.6,18.71,16.99,33.77,16.99c0.92,0,1.25-0.6,1.25-1.11
					s-0.33-1.11-1.25-1.11c-12.07,0-20.69-8.45-29.1-18.02l0,0l-0.55-0.62c-0.81-0.93-1.62-1.86-2.43-2.8
					c-2.74-3.17-5.57-6.44-8.51-9.45C51.51,7.2,42.74,0,29.96,0z M53.58,20.35C46.81,27.22,39.92,33.39,30,33.39
					c-5.09,0-9.32-1.17-12.24-3.39c-2.65-2.02-4.11-4.81-4.11-7.88c0-6.18,6.1-12.75,17.4-12.75c9.86,0,17.19,5.23,22.48,9.78
					l0.66,0.57L53.58,20.35z"/>
			</g>
		</g>
	</g>
</g>
</svg>
