<svg xmlns="http://www.w3.org/2000/svg" id="prefix__instagram_icon" width="15.419" height="15.419" data-name="instagram icon" viewBox="0 0 15.419 15.419">
    <defs>
        <style>
            .prefix__cls-1{fill:#fff}
        </style>
    </defs>
    <path id="prefix__パス_4838" d="M282.739 263.869c2.058 0 2.3.008 3.114.045a4.264 4.264 0 0 1 1.432.266 2.368 2.368 0 0 1 .886.577 2.407 2.407 0 0 1 .577.886 4.254 4.254 0 0 1 .266 1.431c.037.813.045 1.056.045 3.115s-.008 2.3-.045 3.114a4.263 4.263 0 0 1-.266 1.432 2.368 2.368 0 0 1-.577.886 2.407 2.407 0 0 1-.886.577 4.256 4.256 0 0 1-1.432.266c-.813.037-1.056.045-3.114.045s-2.3-.008-3.114-.045a4.263 4.263 0 0 1-1.432-.266 2.368 2.368 0 0 1-.886-.577 2.407 2.407 0 0 1-.577-.886 4.254 4.254 0 0 1-.266-1.431c-.037-.813-.045-1.056-.045-3.116s.008-2.3.045-3.114a4.264 4.264 0 0 1 .266-1.432 2.368 2.368 0 0 1 .577-.886 2.407 2.407 0 0 1 .886-.577 4.255 4.255 0 0 1 1.431-.266c.813-.038 1.058-.045 3.115-.045m0-1.389c-2.094 0-2.356.008-3.179.047a5.635 5.635 0 0 0-1.871.359 3.946 3.946 0 0 0-2.255 2.255 5.667 5.667 0 0 0-.359 1.871c-.037.823-.046 1.085-.046 3.179s.008 2.356.046 3.179a5.635 5.635 0 0 0 .359 1.871 3.946 3.946 0 0 0 2.255 2.255 5.667 5.667 0 0 0 1.871.359c.823.037 1.085.046 3.179.046s2.356-.008 3.179-.046a5.636 5.636 0 0 0 1.871-.359 3.946 3.946 0 0 0 2.255-2.255 5.666 5.666 0 0 0 .359-1.871c.037-.823.047-1.085.047-3.179s-.008-2.356-.047-3.179a5.636 5.636 0 0 0-.359-1.871 3.946 3.946 0 0 0-2.255-2.255 5.666 5.666 0 0 0-1.871-.359c-.823-.038-1.085-.047-3.179-.047z" class="prefix__cls-1" data-name="パス 4838" transform="translate(-275.03 -262.48)"/>
    <path id="prefix__パス_4839" d="M310.448 293.93a3.958 3.958 0 1 0 3.958 3.958 3.958 3.958 0 0 0-3.958-3.958zm0 6.528a2.569 2.569 0 1 1 2.569-2.569 2.57 2.57 0 0 1-2.569 2.569z" class="prefix__cls-1" data-name="パス 4839" transform="translate(-302.739 -290.18)"/>
    <circle id="prefix__楕円形_35" cx=".925" cy=".925" r=".925" class="prefix__cls-1" data-name="楕円形 35" transform="translate(10.899 2.668)"/>
</svg>
