<?xml version="1.0" encoding="utf-8"?>
<!-- Generator: Adobe Illustrator 24.0.3, SVG Export Plug-In . SVG Version: 6.00 Build 0)  -->
<svg version="1.1" id="レイヤー_1" xmlns="http://www.w3.org/2000/svg" xmlns:xlink="http://www.w3.org/1999/xlink" x="0px"
	 y="0px" viewBox="0 0 333 170" style="enable-background:new 0 0 333 170;" xml:space="preserve">
<style type="text/css">
	.st0{fill:#FFFFFF;}
</style>
<g>
	<path class="st0" d="M86.52,169.71c-50.45,0-86.66-37.61-86.66-84.09v-0.47c0-46.48,36.67-84.56,87.13-84.56
		c50.45,0,86.66,37.61,86.66,84.09v0.47C173.64,131.64,136.97,169.71,86.52,169.71z M86.52,33.77c-28.96,0-49.05,22.89-49.05,50.92
		v0.47c0,28.03,20.55,51.39,49.52,51.39c28.96,0,49.05-22.89,49.05-50.92v-0.47C136.04,57.13,115.48,33.77,86.52,33.77z"/>
	<path class="st0" d="M253.53,110.85l-36.91,56.06h-40.88l56.99-83.16L178.08,3.4h42.04l34.34,53.02L289.04,3.4h40.88l-54.66,79.89
		l57,83.62H290.2L253.53,110.85z"/>
</g>
</svg>
