<svg xmlns="http://www.w3.org/2000/svg" width="15.419" height="12.53" viewBox="0 0 15.419 12.53">
    <path id="prefix__twitter_icon" d="M79.7 285.01a8.938 8.938 0 0 0 9-9c0-.137 0-.273-.009-.409a6.45 6.45 0 0 0 1.578-1.638 6.308 6.308 0 0 1-1.817.5 3.171 3.171 0 0 0 1.391-1.75 6.326 6.326 0 0 1-2.009.767 3.166 3.166 0 0 0-5.391 2.885 8.979 8.979 0 0 1-6.52-3.3 3.166 3.166 0 0 0 .98 4.223 3.143 3.143 0 0 1-1.432-.4v.041a3.164 3.164 0 0 0 2.538 3.1 3.152 3.152 0 0 1-1.428.054 3.167 3.167 0 0 0 2.955 2.2 6.344 6.344 0 0 1-3.929 1.354 6.476 6.476 0 0 1-.755-.044 8.968 8.968 0 0 0 4.85 1.42" data-name="twitter icon" transform="translate(-74.85 -272.48)" style="fill:#fff"/>
</svg>
